<svg width="24" height="24" viewBox="0 0 24 24" fill="none" xmlns="http://www.w3.org/2000/svg">
<path d="M21.6732 18.5536C21.0303 17.9805 20.4675 17.3235 19.9999 16.6003C19.4894 15.602 19.1834 14.5117 19.0999 13.3936V10.1003C19.1043 8.344 18.4672 6.64658 17.3084 5.32691C16.1495 4.00724 14.5486 3.15617 12.8065 2.93359V2.07359C12.8065 1.83755 12.7128 1.61118 12.5459 1.44427C12.379 1.27736 12.1526 1.18359 11.9165 1.18359C11.6805 1.18359 11.4541 1.27736 11.2872 1.44427C11.1203 1.61118 11.0265 1.83755 11.0265 2.07359V2.94693C9.30004 3.18555 7.71852 4.04176 6.57489 5.357C5.43126 6.67223 4.80302 8.35736 4.80654 10.1003V13.3936C4.72304 14.5117 4.41705 15.602 3.90654 16.6003C3.44712 17.3218 2.89333 17.9788 2.25987 18.5536C2.18876 18.6161 2.13176 18.693 2.09268 18.7792C2.0536 18.8654 2.03332 18.9589 2.0332 19.0536V19.9603C2.0332 20.1371 2.10344 20.3066 2.22847 20.4317C2.35349 20.5567 2.52306 20.6269 2.69987 20.6269H21.2332C21.41 20.6269 21.5796 20.5567 21.7046 20.4317C21.8296 20.3066 21.8999 20.1371 21.8999 19.9603V19.0536C21.8997 18.9589 21.8795 18.8654 21.8404 18.7792C21.8013 18.693 21.7443 18.6161 21.6732 18.5536ZM3.88797 19.2936C4.50824 18.6944 5.05437 18.0229 5.51464 17.2936C6.15771 16.0879 6.53292 14.7576 6.61464 13.3936V10.1003C6.5882 9.31895 6.71925 8.54031 7 7.81071C7.28075 7.0811 7.70544 6.41545 8.2488 5.85339C8.79216 5.29134 9.44306 4.84437 10.1628 4.53911C10.8825 4.23385 11.2715 4.49836 12 4.5C12.7221 4.50162 13.0405 4.23385 13.7602 4.53911C14.4799 4.84437 15.1308 5.29134 15.6742 5.85339C16.2176 6.41545 16.6423 7.0811 16.923 7.81071C17.2037 8.54031 17.3348 9.31895 17.3084 10.1003V13.3936C17.3901 14.7576 17.7653 16.0879 18.4084 17.2936C18.8686 18.0229 19.4148 18.6944 20.035 19.2936H3.88797Z" fill="#02C685"/>
<path d="M11.9996 22.853C12.4195 22.8433 12.8225 22.6855 13.1373 22.4073C13.4521 22.1291 13.6583 21.7486 13.7196 21.333H10.2129C10.2759 21.7599 10.4918 22.1493 10.8204 22.4289C11.1491 22.7085 11.5681 22.8592 11.9996 22.853Z" fill="#02C685"/>
</svg>
