<svg width="48" height="50" viewBox="0 0 48 50" fill="none" xmlns="http://www.w3.org/2000/svg">
<g clip-path="url(#clip0_291_82)">
<path d="M7.03582 49.693C8.27839 48.9871 9.4799 48.3448 10.6462 47.6399C16.8874 43.8321 22.8412 39.6253 28.2524 34.7059C31.9234 31.3673 35.0958 27.5643 38.104 23.6234C38.233 23.4553 38.3611 23.2871 38.4862 23.117C39.1012 22.2841 39.0239 21.3319 38.2966 20.7795C37.5692 20.2271 36.6287 20.4236 35.9913 21.2243C34.6031 22.9684 33.2168 24.7155 31.7992 26.4361C27.9679 31.0886 23.4405 34.9992 18.5768 38.5392C14.4951 41.5092 10.3519 44.3844 5.87341 46.7307C5.22622 47.069 4.54677 47.3476 3.87904 47.6458C3.69132 47.7148 3.50009 47.7739 3.30615 47.8228C3.49092 47.4503 3.59944 47.1873 3.74706 46.9429C4.55459 45.5879 5.33083 44.2133 6.19114 42.8916C8.38984 39.5109 10.5465 36.099 12.8664 32.8014C17.384 26.3794 23.0142 21.0356 29.2613 16.3117C32.204 14.0837 35.2024 11.927 38.4696 10.1771C40.3486 9.17013 41.8688 7.72128 43.2502 6.12676C44.1467 5.09145 44.1037 3.75796 43.1749 2.71091C42.7839 2.26609 42.5747 1.77728 42.7213 1.19167C42.868 0.606073 43.2326 0.214043 43.8202 0.0595769C44.442 -0.104665 44.9748 0.0771743 45.4245 0.52493C47.4775 2.56916 47.5567 6.02704 45.575 8.2404C44.6316 9.29429 43.6432 10.3071 42.6715 11.3424C42.6984 11.3894 42.7313 11.4328 42.7692 11.4715C45.4088 13.416 46.3747 16.1054 46.231 19.2769C46.0932 22.3232 45.1028 25.1358 43.7869 27.8439C41.599 32.3488 38.7345 36.3825 35.131 39.8687C32.8756 42.0479 30.1754 43.6072 27.3901 45.0101C23.2293 47.1052 18.8906 48.7075 14.2967 49.5532C12.0481 49.9677 9.78003 50.1896 7.49628 49.8034C7.35844 49.7761 7.22254 49.737 7.03582 49.693Z" fill="white"/>
<path d="M38.4041 6.64779C32.6898 9.48292 27.8574 13.3651 23.0553 17.304C15.8452 23.2177 10.2024 30.4482 5.34939 38.3465C4.11367 40.3546 2.83492 42.3313 1.51219 44.4274C1.40465 43.9777 1.2932 43.6052 1.22672 43.2249C0.737904 40.4475 1.03119 37.7062 1.72531 35.0128C3.47918 28.1987 6.5685 22.0533 11.2083 16.7418C13.4569 14.1716 16.2412 12.2242 19.134 10.443C22.3485 8.46423 25.7193 6.82572 29.4089 5.92043C31.677 5.36709 33.9686 5.09238 36.2602 5.77183C36.9992 5.98691 37.6914 6.3545 38.4041 6.64779Z" fill="white"/>
</g>
<defs>
<clipPath id="clip0_291_82">
<rect width="46.0289" height="50" fill="white" transform="translate(0.985352)"/>
</clipPath>
</defs>
</svg>
