<svg width="50" height="50" viewBox="0 0 50 50" fill="none" xmlns="http://www.w3.org/2000/svg">
<path d="M12.4998 37.5001C15.4961 37.0552 18.2326 35.5479 20.2099 33.2531C22.1872 30.9584 23.2735 28.0292 23.2707 25.0001C23.2857 21.1976 24.6651 17.5269 27.1579 14.6556C29.6508 11.7843 33.0914 9.90311 36.854 9.35423L42.2498 8.5834C42.104 8.41673 41.979 8.25006 41.8123 8.0834C35.0207 1.29173 21.979 3.3334 12.6457 12.6251C4.74984 20.6251 2.08317 31.2501 5.74984 38.4584L12.4998 37.5001Z" fill="white"/>
<path d="M26.521 24.9999C26.5074 28.8016 25.1316 32.4726 22.6434 35.3469C20.1551 38.2212 16.7191 40.1086 12.9585 40.6666L7.8335 41.3958L8.146 41.7499C14.9377 48.5416 27.9793 46.5208 37.3127 37.2291C45.1668 29.3958 47.9168 18.7499 44.271 11.6458L37.3127 12.6458C34.3355 13.0782 31.6112 14.5613 29.6321 16.827C27.6529 19.0927 26.5494 21.9916 26.521 24.9999Z" fill="white"/>
</svg>
