<svg width="20" height="20" viewBox="0 0 20 20" fill="none" xmlns="http://www.w3.org/2000/svg">
<path fill-rule="evenodd" clip-rule="evenodd" d="M16.2105 16.6581C16.4575 16.6581 16.6579 16.4568 16.6579 16.2107V7.26336H12.6316C11.6438 7.26336 10.8421 6.46168 10.8421 5.47389V1.44757H5.47368C5.22674 1.44757 5.02632 1.64889 5.02632 1.89494V8.22646C4.55818 8.29875 4.10847 8.42688 3.68421 8.60386V1.89494C3.68421 0.907153 4.48589 0.105469 5.47368 0.105469H10.996C11.021 0.105469 11.0453 0.108788 11.0695 0.112099C11.087 0.114482 11.1046 0.11687 11.1222 0.117995C11.3145 0.131416 11.5042 0.1681 11.6805 0.241469C11.7317 0.263336 11.7803 0.291456 11.8288 0.31947L11.8345 0.322798C11.8476 0.330353 11.8606 0.337878 11.8737 0.345258C11.8873 0.352676 11.9013 0.359511 11.9153 0.366351L11.9162 0.366794C11.9409 0.378793 11.9656 0.390836 11.9883 0.4061C12.0581 0.453521 12.1207 0.50989 12.1842 0.567153C12.1945 0.576279 12.2055 0.584753 12.2167 0.593279C12.2317 0.604804 12.2468 0.616408 12.2603 0.629785L17.4757 5.84431C17.8112 6.17984 18 6.63526 18 7.10947V16.2107C18 17.1985 17.1983 18.0002 16.2105 18.0002H10.1177C10.4992 17.6027 10.8247 17.1511 11.0817 16.6581H16.2105ZM15.654 5.92126L12.1842 2.45057V5.47389C12.1842 5.71994 12.3846 5.92126 12.6316 5.92126H15.654Z" fill="#757575"/>
<path fill-rule="evenodd" clip-rule="evenodd" d="M5.92105 18.8949C8.63888 18.8949 10.8421 16.6917 10.8421 13.9739C10.8421 11.256 8.63888 9.05284 5.92105 9.05284C3.20323 9.05284 1 11.256 1 13.9739C1 16.6917 3.20323 18.8949 5.92105 18.8949ZM8.28893 11.868C8.46363 11.6934 8.74689 11.6934 8.9216 11.868C9.09629 12.0428 9.09629 12.3261 8.9216 12.5008L5.34265 16.0797C5.16794 16.2544 4.88469 16.2544 4.70998 16.0797L2.92051 14.2903C2.74579 14.1155 2.74579 13.8323 2.92051 13.6575C3.09521 13.4829 3.37847 13.4829 3.55318 13.6575L5.02632 15.1307L8.28893 11.868Z" fill="#757575"/>
</svg>
