<svg width="50" height="50" viewBox="0 0 50 50" fill="none" xmlns="http://www.w3.org/2000/svg">
<path d="M24.9998 4.16675C36.5061 4.16675 45.8332 13.4938 45.8332 25.0001C45.8332 36.5063 36.5061 45.8334 24.9998 45.8334C13.4936 45.8334 4.1665 36.5063 4.1665 25.0001C4.1665 13.4938 13.4936 4.16675 24.9998 4.16675ZM33.3415 26.8293C32.6228 25.7355 32.104 24.948 30.129 25.2605C26.3998 25.8522 25.9853 26.5042 25.8082 27.5793L25.7582 27.9042L25.7061 28.2501C25.504 29.673 25.5103 30.2105 26.1644 30.8959C28.7998 33.6626 30.379 35.6563 30.8582 36.823C31.0915 37.3918 31.6915 39.1147 31.279 40.8188C33.8078 39.8116 36.0587 38.2136 37.8436 36.1584C38.0728 35.3793 38.2394 34.4084 38.2394 33.2334V33.0147C38.2394 31.0938 38.2394 30.2167 36.8811 29.4397C36.4445 29.1921 35.9961 28.9661 35.5373 28.7626C34.7728 28.4147 34.2665 28.1876 33.5832 27.1876C33.5007 27.0694 33.4201 26.95 33.3415 26.8293ZM24.9998 7.9855C20.1728 7.9855 15.8123 9.998 12.7165 13.2272C13.0853 13.4834 13.4061 13.8438 13.6269 14.3397C14.0519 15.2917 14.0519 16.273 14.0519 17.1417C14.0519 17.8251 14.0519 18.4751 14.2707 18.9438C14.5707 19.5855 15.8665 19.8605 17.0103 20.098C17.4207 20.1855 17.8415 20.273 18.2248 20.3792C19.279 20.6709 20.0957 21.6188 20.7478 22.3792C21.0186 22.6938 21.4207 23.1584 21.6228 23.2751C21.7269 23.2001 22.0623 22.8355 22.2269 22.2376C22.3561 21.7792 22.3186 21.3751 22.1332 21.1542C20.9665 19.7793 21.0311 17.1334 21.3915 16.1563C21.9582 14.6167 23.729 14.7313 25.0248 14.8147C25.5082 14.8459 25.9623 14.8772 26.304 14.8334C27.5998 14.6709 27.9998 12.698 28.2811 12.3126C28.8894 11.4792 30.7519 10.223 31.9061 9.448C29.7321 8.48132 27.379 7.98302 24.9998 7.9855Z" fill="white"/>
</svg>
