<svg width="40" height="40" viewBox="0 0 40 40" fill="none" xmlns="http://www.w3.org/2000/svg">
<circle cx="20" cy="20" r="20" fill="#04C684"/>
<path d="M13 12.25C13 11.0074 14.0074 10 15.25 10H23.25C24.4926 10 25.5 11.0074 25.5 12.25V17.5H26.75C27.9926 17.5 29 18.5074 29 19.75V29.25C29 29.6642 28.6642 30 28.25 30H25.5V26.25C25.5 25.5596 24.9404 25 24.25 25H17.75C17.0596 25 16.5 25.5596 16.5 26.25V30H13.75C13.3358 30 13 29.6642 13 29.25V12.25ZM24 26.5V30H21.75V26.5H24ZM20.25 26.5V30H18V26.5H20.25ZM16.5 14.5C16.5 15.0523 16.9477 15.5 17.5 15.5C18.0523 15.5 18.5 15.0523 18.5 14.5C18.5 13.9477 18.0523 13.5 17.5 13.5C16.9477 13.5 16.5 13.9477 16.5 14.5ZM17.5 20.5C16.9477 20.5 16.5 20.9477 16.5 21.5C16.5 22.0523 16.9477 22.5 17.5 22.5C18.0523 22.5 18.5 22.0523 18.5 21.5C18.5 20.9477 18.0523 20.5 17.5 20.5ZM17.5 17C16.9477 17 16.5 17.4477 16.5 18C16.5 18.5523 16.9477 19 17.5 19C18.0523 19 18.5 18.5523 18.5 18C18.5 17.4477 18.0523 17 17.5 17ZM21 13.5C20.4477 13.5 20 13.9477 20 14.5C20 15.0523 20.4477 15.5 21 15.5C21.5523 15.5 22 15.0523 22 14.5C22 13.9477 21.5523 13.5 21 13.5ZM21 20.5C20.4477 20.5 20 20.9477 20 21.5C20 22.0523 20.4477 22.5 21 22.5C21.5523 22.5 22 22.0523 22 21.5C22 20.9477 21.5523 20.5 21 20.5ZM24.5 20.5C23.9477 20.5 23.5 20.9477 23.5 21.5C23.5 22.0523 23.9477 22.5 24.5 22.5C25.0523 22.5 25.5 22.0523 25.5 21.5C25.5 20.9477 25.0523 20.5 24.5 20.5ZM21 17C20.4477 17 20 17.4477 20 18C20 18.5523 20.4477 19 21 19C21.5523 19 22 18.5523 22 18C22 17.4477 21.5523 17 21 17Z" fill="white"/>
</svg>
