<svg width="12" height="14" viewBox="0 0 12 14" fill="none" xmlns="http://www.w3.org/2000/svg">
<path d="M10.1766 2.07119C8.70476 0.599316 6.30789 0.599316 4.83758 2.07119L0.759451 6.14619C0.732888 6.17275 0.718825 6.20869 0.718825 6.24619C0.718825 6.28369 0.732888 6.31963 0.759451 6.34619L1.33601 6.92275C1.36237 6.94899 1.39804 6.96372 1.43523 6.96372C1.47242 6.96372 1.5081 6.94899 1.53445 6.92275L5.61258 2.84775C6.11883 2.3415 6.79226 2.06338 7.50789 2.06338C8.22351 2.06338 8.89695 2.3415 9.40164 2.84775C9.90789 3.354 10.186 4.02744 10.186 4.7415C10.186 5.45713 9.90789 6.129 9.40164 6.63525L5.24539 10.7899L4.57195 11.4634C3.94226 12.0931 2.91883 12.0931 2.28914 11.4634C1.98445 11.1587 1.81726 10.754 1.81726 10.3228C1.81726 9.89151 1.98445 9.48682 2.28914 9.18213L6.41258 5.06025C6.51726 4.95713 6.65476 4.89932 6.80164 4.89932H6.8032C6.95008 4.89932 7.08601 4.95713 7.18914 5.06025C7.29383 5.16494 7.35008 5.30244 7.35008 5.44932C7.35008 5.59463 7.29226 5.73213 7.18914 5.83525L3.81883 9.20244C3.79226 9.229 3.7782 9.26494 3.7782 9.30244C3.7782 9.33994 3.79226 9.37588 3.81883 9.40244L4.39539 9.979C4.42174 10.0052 4.45742 10.02 4.49461 10.02C4.5318 10.02 4.56747 10.0052 4.59383 9.979L7.96258 6.61025C8.27351 6.29932 8.44383 5.88682 8.44383 5.44775C8.44383 5.00869 8.27195 4.59463 7.96258 4.28525C7.32039 3.64307 6.27664 3.64463 5.63445 4.28525L5.23445 4.68682L1.51258 8.40713C1.25997 8.65826 1.05973 8.95703 0.923474 9.28614C0.787219 9.61524 0.717658 9.96812 0.718825 10.3243C0.718825 11.0478 1.00164 11.7274 1.51258 12.2384C2.04226 12.7665 2.73601 13.0306 3.42976 13.0306C4.12351 13.0306 4.81726 12.7665 5.34539 12.2384L10.1766 7.41025C10.8876 6.69775 11.2813 5.74932 11.2813 4.7415C11.2829 3.73213 10.8891 2.78369 10.1766 2.07119Z" fill="#2A2A2A"/>
</svg>
