<svg width="28" height="28" viewBox="0 0 28 28" fill="none" xmlns="http://www.w3.org/2000/svg">
<path d="M27.7277 11.2581H26.6V11.2H14V16.8H21.9121C20.7578 20.0599 17.6561 22.4 14 22.4C9.3611 22.4 5.6 18.6389 5.6 14C5.6 9.3611 9.3611 5.6 14 5.6C16.1413 5.6 18.0894 6.4078 19.5727 7.7273L23.5326 3.7674C21.0322 1.4371 17.6876 0 14 0C6.2685 0 0 6.2685 0 14C0 21.7315 6.2685 28 14 28C21.7315 28 28 21.7315 28 14C28 13.0613 27.9034 12.145 27.7277 11.2581Z" fill="#FFC107"/>
<path d="M1.61426 7.4837L6.21396 10.857C7.45856 7.7756 10.4728 5.6 14.0001 5.6C16.1414 5.6 18.0895 6.4078 19.5728 7.7273L23.5327 3.7674C21.0323 1.4371 17.6877 0 14.0001 0C8.62266 0 3.95926 3.0359 1.61426 7.4837Z" fill="#FF3D00"/>
<path d="M14.0001 27.9997C17.6163 27.9997 20.9021 26.6158 23.3864 24.3653L19.0534 20.6987C17.6478 21.7634 15.9006 22.3997 14.0001 22.3997C10.3587 22.3997 7.26682 20.0778 6.10202 16.8375L1.53662 20.355C3.85362 24.8889 8.55902 27.9997 14.0001 27.9997Z" fill="#4CAF50"/>
<path d="M27.7277 11.2584H26.6V11.2003H14V16.8003H21.9121C21.3577 18.3662 20.3504 19.7165 19.0512 20.7C19.0519 20.6993 19.0526 20.6993 19.0533 20.6986L23.3863 24.3652C23.0797 24.6438 28 21.0003 28 14.0003C28 13.0616 27.9034 12.1453 27.7277 11.2584Z" fill="#1976D2"/>
</svg>
