<svg width="50" height="50" viewBox="0 0 50 50" fill="none" xmlns="http://www.w3.org/2000/svg">
<path d="M41.6665 4.16675H8.33317C6.0415 4.16675 4.1665 6.04175 4.1665 8.33342V41.6668C4.1665 43.9584 6.0415 45.8334 8.33317 45.8334H41.6665C43.9582 45.8334 45.8332 43.9584 45.8332 41.6668V8.33342C45.8332 6.04175 43.9582 4.16675 41.6665 4.16675ZM31.8748 8.33342C30.2082 10.6251 29.1665 13.5417 29.1665 16.6667H20.8332C20.8332 13.3334 22.4998 10.2084 24.9998 8.33342H31.8748ZM29.1665 29.1667H20.8332C20.8332 26.0417 19.7915 23.1251 18.1248 20.8334H24.9998C27.4998 22.7084 29.1665 25.8334 29.1665 29.1667ZM8.33317 8.33342H19.3748C17.7082 10.6251 16.6665 13.5417 16.6665 16.6667H8.33317V8.33342ZM8.33317 20.8334H12.4998C14.9998 22.7084 16.6665 25.6251 16.6665 29.1667H8.33317V20.8334ZM8.33317 41.6668V33.3334H19.3748C17.7082 35.6251 16.6665 38.5418 16.6665 41.6668H8.33317ZM20.8332 41.6668C20.8332 38.3334 22.4998 35.2084 24.9998 33.3334H31.8748C30.2082 35.6251 29.1665 38.5418 29.1665 41.6668H20.8332ZM41.6665 41.6668H33.3332C33.3332 38.3334 34.9998 35.2084 37.4998 33.3334H41.6665V41.6668ZM41.6665 29.1667H33.3332C33.3332 26.0417 32.2915 23.1251 30.6248 20.8334H41.6665V29.1667ZM41.6665 16.6667H33.3332C33.3332 13.3334 34.9998 10.2084 37.4998 8.33342H41.6665V16.6667Z" fill="white"/>
</svg>
