<svg width="20" height="20" viewBox="0 0 20 20" fill="none" xmlns="http://www.w3.org/2000/svg">
<path d="M8.33398 7.49967C8.33398 7.01053 8.51643 6.6977 8.75595 6.49447C9.01358 6.27588 9.38679 6.14551 9.79232 6.14551C10.1979 6.14551 10.5711 6.27588 10.8287 6.49447C11.0682 6.6977 11.2507 7.01053 11.2507 7.49967C11.2507 7.86398 11.1648 8.06623 11.0651 8.21581C10.9487 8.39032 10.7957 8.52793 10.5368 8.76065L10.4848 8.80735C10.2185 9.04705 9.86812 9.37109 9.60096 9.84308C9.32563 10.3295 9.16732 10.9173 9.16732 11.6663C9.16732 12.1266 9.54041 12.4997 10.0007 12.4997C10.4609 12.4997 10.834 12.1266 10.834 11.6663C10.834 11.1654 10.9361 10.8678 11.0514 10.6641C11.1748 10.446 11.3453 10.2752 11.5998 10.0462C11.6227 10.0256 11.6469 10.004 11.672 9.98158C11.8998 9.77859 12.2117 9.50055 12.4518 9.14031C12.7427 8.70395 12.9173 8.17704 12.9173 7.49967C12.9173 6.53049 12.5268 5.74956 11.907 5.22363C11.3052 4.71306 10.5326 4.47884 9.79232 4.47884C9.05202 4.47884 8.27939 4.71306 7.67765 5.22363C7.05779 5.74956 6.66732 6.53049 6.66732 7.49967C6.66732 7.95991 7.04041 8.33301 7.50065 8.33301C7.96089 8.33301 8.33398 7.95991 8.33398 7.49967Z" fill="#757575"/>
<path d="M10.6256 15.5594C10.9352 15.2189 10.9101 14.6918 10.5696 14.3822C10.229 14.0726 9.70198 14.0977 9.39238 14.4383L9.38405 14.4474C9.07445 14.788 9.09953 15.315 9.44007 15.6246C9.78061 15.9342 10.3077 15.9091 10.6173 15.5686L10.6256 15.5594Z" fill="#757575"/>
<path fill-rule="evenodd" clip-rule="evenodd" d="M10.0007 0.833008C4.93791 0.833008 0.833984 4.93694 0.833984 9.99967C0.833984 15.0624 4.93791 19.1663 10.0007 19.1663C15.0634 19.1663 19.1673 15.0624 19.1673 9.99967C19.1673 4.93694 15.0634 0.833008 10.0007 0.833008ZM2.50065 9.99967C2.50065 5.85741 5.85839 2.49967 10.0007 2.49967C14.1429 2.49967 17.5007 5.85741 17.5007 9.99967C17.5007 14.1419 14.1429 17.4997 10.0007 17.4997C5.85839 17.4997 2.50065 14.1419 2.50065 9.99967Z" fill="#757575"/>
</svg>
