<svg width="14" height="18" viewBox="0 0 14 18" fill="none" xmlns="http://www.w3.org/2000/svg">
<path d="M2.83398 0.666992C2.17094 0.666992 1.53506 0.930384 1.06622 1.39923C0.597376 1.86807 0.333984 2.50395 0.333984 3.16699V14.8337C0.333984 15.4967 0.597376 16.1326 1.06622 16.6014C1.53506 17.0703 2.17094 17.3337 2.83398 17.3337H11.1673C11.8304 17.3337 12.4662 17.0703 12.9351 16.6014C13.4039 16.1326 13.6673 15.4967 13.6673 14.8337V14.0003C13.6673 13.5401 13.2942 13.167 12.834 13.167C12.3737 13.167 12.0007 13.5401 12.0007 14.0003V14.8337C12.0007 15.0547 11.9129 15.2666 11.7566 15.4229C11.6003 15.5792 11.3883 15.667 11.1673 15.667H2.83398C2.61297 15.667 2.40101 15.5792 2.24473 15.4229C2.08845 15.2666 2.00065 15.0547 2.00065 14.8337V3.16699C2.00065 2.94598 2.08845 2.73402 2.24473 2.57774C2.40101 2.42146 2.61297 2.33366 2.83398 2.33366H11.1673C11.3883 2.33366 11.6003 2.42146 11.7566 2.57774C11.9129 2.73402 12.0007 2.94598 12.0007 3.16699V4.00033C12.0007 4.46056 12.3737 4.83366 12.834 4.83366C13.2942 4.83366 13.6673 4.46056 13.6673 4.00033V3.16699C13.6673 2.50395 13.4039 1.86807 12.9351 1.39923C12.4662 0.930384 11.8304 0.666992 11.1673 0.666992H2.83398Z" fill="#D55F5A"/>
<path d="M10.9232 5.91107C10.5978 5.58563 10.0702 5.58563 9.74473 5.91107C9.41929 6.23651 9.41929 6.76414 9.74473 7.08958L10.8221 8.16699H7.00065C6.54041 8.16699 6.16732 8.54009 6.16732 9.00033C6.16732 9.46056 6.54041 9.83366 7.00065 9.83366H10.8221L9.74473 10.9111C9.41929 11.2365 9.41929 11.7641 9.74473 12.0896C10.0702 12.415 10.5978 12.415 10.9232 12.0896L13.4232 9.58958C13.7487 9.26414 13.7487 8.73651 13.4232 8.41107L10.9232 5.91107Z" fill="#D55F5A"/>
</svg>
