<svg width="53" height="53" viewBox="0 0 53 53" fill="none" xmlns="http://www.w3.org/2000/svg">
<g clip-path="url(#clip0_269_1545)">
<path d="M44.1667 26.5C44.1667 19.08 39.5955 12.7421 33.1251 10.1362V11.0417C33.1251 13.4708 31.1376 15.4583 28.7084 15.4583H24.2917V19.875C24.2917 21.0896 23.298 22.0833 22.0834 22.0833H17.6667V26.5H30.9167C32.0209 26.5 32.9042 27.2729 33.1251 28.2887C29.1501 30.5854 26.5001 34.8696 26.5001 39.75C26.5001 43.0625 27.6926 46.0437 29.6801 48.3625L26.5001 48.5833C14.3542 48.5833 4.41675 38.6458 4.41675 26.5C4.41675 14.3542 14.3542 4.41666 26.5001 4.41666C38.6459 4.41666 48.5834 14.3542 48.5834 26.5L48.3626 29.68C47.1259 28.62 45.7126 27.8029 44.1667 27.2508V26.5ZM24.2917 44.0121V39.75C21.8626 39.75 19.8751 37.7625 19.8751 35.3333V33.125L9.29716 22.5471C9.01008 23.8058 8.83341 25.1308 8.83341 26.5C8.83341 35.51 15.5909 42.93 24.2917 44.0121Z" fill="#2A2A2A"/>
<path d="M47.3746 44.1804C48.2104 42.8077 48.6524 41.2315 48.6523 39.6243C48.6523 34.7556 44.7128 30.8132 39.8431 30.8112C34.9778 30.8127 31.0339 34.7556 31.0339 39.6234C31.0339 44.4867 34.9783 48.4292 39.846 48.4292C41.516 48.4292 43.0719 47.9573 44.4016 47.1509L50.3937 53.1425L53.3652 50.1695L47.3746 44.1804ZM39.8451 45.0741C36.8342 45.0668 34.4001 42.6337 34.3948 39.6292C34.3968 38.1842 34.9717 36.799 35.9934 35.7772C37.015 34.7553 38.4001 34.1802 39.8451 34.1779C42.8545 34.1857 45.2895 36.6188 45.2958 39.6292C45.2895 42.6303 42.8535 45.0668 39.8451 45.0741Z" fill="#2A2A2A"/>
</g>
<defs>
<clipPath id="clip0_269_1545">
<rect width="53" height="53" fill="white"/> 
</clipPath>
</defs>
</svg>
