<svg width="43" height="43" viewBox="0 0 43 43" fill="none" xmlns="http://www.w3.org/2000/svg">
<rect x="0.5" y="0.5" width="42" height="42" rx="7.5" fill="white" fill-opacity="1"/>
<rect x="0.5" y="0.5" width="42" height="42" rx="7.5" stroke="#018C79"/>
<path d="M17 15.025C17 13.9066 18.0074 13 19.25 13H24.75C25.9926 13 27 13.9066 27 15.025V28.975C27 30.0933 25.9926 31 24.75 31H19.25C19.0947 31 18.943 30.9859 18.7965 30.9589C17.7713 30.7701 17 29.9536 17 28.975V15.025ZM18.5 15.7V17.05H20.25C20.6642 17.05 21 16.7478 21 16.375C21 16.0022 20.6642 15.7 20.25 15.7H18.5ZM18.5 18.4V19.75H22.25C22.6642 19.75 23 19.4478 23 19.075C23 18.7022 22.6642 18.4 22.25 18.4H18.5ZM18.5 21.325V22.675H20.25C20.6642 22.675 21 22.3728 21 22C21 21.6272 20.6642 21.325 20.25 21.325H18.5ZM18.5 24.25V25.6H22.25C22.6642 25.6 23 25.2978 23 24.925C23 24.5522 22.6642 24.25 22.25 24.25H18.5ZM18.5 26.95V28.3H20.25C20.6642 28.3 21 27.9978 21 27.625C21 27.2522 20.6642 26.95 20.25 26.95H18.5Z" fill="#018C79"/>
</svg>
