<svg width="63" height="63" viewBox="0 0 63 63" fill="none" xmlns="http://www.w3.org/2000/svg">
<g filter="url(#filter0_d_414_2480)">
<rect x="10" y="6" width="43" height="43" rx="8" fill="url(#paint0_linear_414_2480)"/>
<path d="M26.1484 26.0696C24.4935 25.4076 23.666 25.0767 23.666 24.6654C23.666 24.2541 24.4935 23.9231 26.1484 23.2611L28.4888 22.325C30.1437 21.663 30.9711 21.332 31.9993 21.332C33.0276 21.332 33.855 21.663 35.5099 22.325L37.8503 23.2611C39.5052 23.9231 40.3327 24.2541 40.3327 24.6654C40.3327 25.0767 39.5052 25.4076 37.8503 26.0696L35.5099 27.0058C33.855 27.6677 33.0276 27.9987 31.9993 27.9987C30.9711 27.9987 30.1437 27.6677 28.4888 27.0058L26.1484 26.0696Z" fill="white"/>
<path fill-rule="evenodd" clip-rule="evenodd" d="M23.666 24.6654C23.666 25.0767 24.4935 25.4076 26.1484 26.0696L28.4888 27.0058C30.1437 27.6677 30.9711 27.9987 31.9993 27.9987C33.0276 27.9987 33.855 27.6677 35.5099 27.0058L37.8503 26.0696C39.5052 25.4076 40.3327 25.0767 40.3327 24.6654C40.3327 24.2541 39.5052 23.9231 37.8503 23.2611L35.5099 22.325C33.855 21.663 33.0276 21.332 31.9993 21.332C30.9711 21.332 30.1437 21.663 28.4888 22.325L26.1484 23.2611C24.4935 23.9231 23.666 24.2541 23.666 24.6654Z" fill="white"/>
<path opacity="0.7" d="M26.8045 26.332L26.1484 26.5945C24.4935 27.2564 23.666 27.5874 23.666 27.9987C23.666 28.41 24.4935 28.741 26.1484 29.4029L28.4888 30.3391C30.1437 31.001 30.9711 31.332 31.9993 31.332C33.0276 31.332 33.855 31.001 35.5099 30.3391L37.8503 29.4029C39.5052 28.741 40.3327 28.41 40.3327 27.9987C40.3327 27.5874 39.5052 27.2564 37.8503 26.5945L37.1942 26.332L35.5099 27.0058C33.855 27.6677 33.0276 27.9987 31.9993 27.9987C30.9711 27.9987 30.1437 27.6677 28.4888 27.0058L26.8045 26.332Z" fill="white"/>
<path opacity="0.4" d="M26.8045 29.668L26.1484 29.9304C24.4935 30.5924 23.666 30.9233 23.666 31.3346C23.666 31.7459 24.4935 32.0769 26.1484 32.7389L28.4888 33.675C30.1437 34.337 30.9711 34.668 31.9993 34.668C33.0276 34.668 33.855 34.337 35.5099 33.675L37.8503 32.7389C39.5052 32.0769 40.3327 31.7459 40.3327 31.3346C40.3327 30.9233 39.5052 30.5924 37.8503 29.9304L37.1942 29.668L35.5099 30.3417C33.855 31.0037 33.0276 31.3346 31.9993 31.3346C30.9711 31.3346 30.1437 31.0037 28.4888 30.3417L26.8045 29.668Z" fill="white"/>
</g>
<defs>
<filter id="filter0_d_414_2480" x="0" y="0" width="63" height="63" filterUnits="userSpaceOnUse" color-interpolation-filters="sRGB">
<feFlood flood-opacity="0" result="BackgroundImageFix"/>
<feColorMatrix in="SourceAlpha" type="matrix" values="0 0 0 0 0 0 0 0 0 0 0 0 0 0 0 0 0 0 127 0" result="hardAlpha"/>
<feOffset dy="4"/>
<feGaussianBlur stdDeviation="5"/>
<feComposite in2="hardAlpha" operator="out"/>
<feColorMatrix type="matrix" values="0 0 0 0 0 0 0 0 0 0 0 0 0 0 0 0 0 0 0.15 0"/>
<feBlend mode="normal" in2="BackgroundImageFix" result="effect1_dropShadow_414_2480"/>
<feBlend mode="normal" in="SourceGraphic" in2="effect1_dropShadow_414_2480" result="shape"/>
</filter>
<linearGradient id="paint0_linear_414_2480" x1="10" y1="6" x2="53" y2="49" gradientUnits="userSpaceOnUse">
<stop stop-color="#02C685"/>
<stop offset="1" stop-color="#8ADF5E"/>
</linearGradient>
</defs>
</svg>
