<svg width="20" height="20" viewBox="0 0 20 20" fill="none" xmlns="http://www.w3.org/2000/svg">
<path d="M0.841188 2.12856C0.905708 0.93485 1.89245 0 3.08791 0H4.24569C5.44114 0 6.42788 0.93485 6.49241 2.12856L7.33025 17.6286C7.3999 18.917 6.37389 20 5.08353 20H2.25007C0.959708 20 -0.0663021 18.917 0.00334787 17.6286L0.841188 2.12856ZM7.42877 20H17.6669C18.9095 20 19.9169 18.9926 19.9169 17.75V4C19.9169 3.7021 19.7405 3.43244 19.4677 3.31297C19.1948 3.19349 18.877 3.24684 18.6581 3.4489L13.4169 8.287V4C13.4169 3.7021 13.2405 3.43244 12.9677 3.31297C12.6948 3.19349 12.377 3.24684 12.1581 3.4489L7.78355 7.48695L8.32887 17.5746C8.37957 18.5125 8.02827 19.3751 7.42877 20ZM10.9168 14C10.9168 13.4477 11.3646 13 11.9168 13H15.9168C16.4691 13 16.9168 13.4477 16.9168 14V18.5H10.9168V14Z" fill="#FF9212"/>
</svg>
