<svg width="40" height="40" viewBox="0 0 40 40" fill="none" xmlns="http://www.w3.org/2000/svg">
<circle cx="20" cy="20" r="20" fill="#B8E500"/>
<path d="M10.9232 12.1286C10.9877 10.9349 11.9745 10 13.1699 10H14.3277C15.5232 10 16.5099 10.9349 16.5744 12.1286L17.4123 27.6286C17.4819 28.917 16.4559 30 15.1656 30H12.3321C11.0417 30 10.0157 28.917 10.0854 27.6286L10.9232 12.1286ZM17.5108 30H27.7489C28.9915 30 29.9989 28.9926 29.9989 27.75V14C29.9989 13.7021 29.8225 13.4324 29.5497 13.313C29.2768 13.1935 28.959 13.2468 28.7401 13.4489L23.4989 18.287V14C23.4989 13.7021 23.3225 13.4324 23.0497 13.313C22.7768 13.1935 22.459 13.2468 22.2401 13.4489L17.8656 17.4869L18.4109 27.5746C18.4616 28.5125 18.1103 29.3751 17.5108 30ZM20.9988 24C20.9988 23.4477 21.4466 23 21.9988 23H25.9988C26.5511 23 26.9988 23.4477 26.9988 24V28.5H20.9988V24Z" fill="white"/>
</svg>
