<svg width="28" height="28" viewBox="0 0 28 28" fill="none" xmlns="http://www.w3.org/2000/svg">
<path d="M16.4168 11.4087V9.33861C16.4168 8.37168 15.4499 7.71799 14.551 8.07207L9.60741 10.0468V9.39309C9.60741 8.41254 8.61325 7.74522 7.71441 8.14017L1.72216 10.7005C0.727995 11.1363 0.074295 12.1168 0.074295 13.2063V25.0274C0.074295 26.5255 1.29998 27.7512 2.79804 27.7512H24.588C26.0861 27.7512 27.3118 26.5255 27.3118 25.0274V11.4087H16.4168ZM9.60741 20.9418C9.60741 21.6908 8.99457 22.3037 8.24554 22.3037C7.49651 22.3037 6.88367 21.6908 6.88367 20.9418V18.218C6.88367 17.469 7.49651 16.8562 8.24554 16.8562C8.99457 16.8562 9.60741 17.469 9.60741 18.218V20.9418ZM15.0549 20.9418C15.0549 21.6908 14.4421 22.3037 13.693 22.3037C12.944 22.3037 12.3312 21.6908 12.3312 20.9418V18.218C12.3312 17.469 12.944 16.8562 13.693 16.8562C14.4421 16.8562 15.0549 17.469 15.0549 18.218V20.9418ZM20.5024 20.9418C20.5024 21.6908 19.8896 22.3037 19.1405 22.3037C18.3915 22.3037 17.7787 21.6908 17.7787 20.9418V18.218C17.7787 17.469 18.3915 16.8562 19.1405 16.8562C19.8896 16.8562 20.5024 17.469 20.5024 18.218V20.9418ZM24.7515 0.513672H23.0763C22.3818 0.513672 21.8098 1.03118 21.7281 1.71212L20.7748 9.36585H27.0394L26.0997 1.71212C26.018 1.03118 25.4324 0.513672 24.7515 0.513672Z" fill="white"/>
</svg>
