<svg width="20" height="20" viewBox="0 0 20 20" fill="none" xmlns="http://www.w3.org/2000/svg">
<path d="M10.0016 0C15.5253 0 20.0031 4.47784 20.0031 10.0016C20.0031 15.5253 15.5253 20.003 10.0016 20.003C4.47784 20.003 0 15.5253 0 10.0016C0 4.47784 4.47784 0 10.0016 0ZM10.0016 1.5C5.30627 1.5 1.5 5.30627 1.5 10.0016C1.5 14.6969 5.30627 18.503 10.0016 18.503C14.6969 18.503 18.5031 14.6969 18.5031 10.0016C18.5031 5.30627 14.6969 1.5 10.0016 1.5ZM9.99786 8.50055C10.3776 8.50035 10.6916 8.78225 10.7415 9.14835L10.7484 9.25005L10.752 14.7517C10.7523 15.1659 10.4167 15.502 10.0025 15.5022C9.62276 15.5025 9.30876 15.2205 9.25886 14.8545L9.25196 14.7527L9.24836 9.25105C9.24816 8.83685 9.58366 8.50085 9.99786 8.50055ZM10.002 5.00281C10.5536 5.00281 11.0007 5.44993 11.0007 6.00148C11.0007 6.55302 10.5536 7.00014 10.002 7.00014C9.45046 7.00014 9.00336 6.55302 9.00336 6.00148C9.00336 5.44993 9.45046 5.00281 10.002 5.00281Z" fill="#02C685"/>
</svg>
