<svg width="45" height="40" viewBox="0 0 45 40" fill="none" xmlns="http://www.w3.org/2000/svg">
<path d="M44.3438 5.7832C44.294 6.02966 44.1854 6.26045 44.0273 6.45596C43.8691 6.65148 43.6662 6.80595 43.4356 6.90625L32.461 11.6855C36.0318 12.6403 39.0777 14.9731 40.9297 18.1719C41.8589 19.7575 42.462 21.5128 42.7035 23.3347C42.945 25.1565 42.82 27.0083 42.336 28.7812C42.2691 29.0283 42.1425 29.2551 41.9674 29.4418C41.7923 29.6284 41.5741 29.7692 41.3318 29.8518C41.0896 29.9344 40.8307 29.9561 40.5781 29.9152C40.3254 29.8743 40.0867 29.772 39.8829 29.6172L24.0626 17.5703V37.75C24.0626 38.1644 23.8979 38.5618 23.6049 38.8549C23.3119 39.1479 22.9145 39.3125 22.5001 39.3125C22.0857 39.3125 21.6882 39.1479 21.3952 38.8549C21.1022 38.5618 20.9376 38.1644 20.9376 37.75V17.5703L5.11725 29.6172C4.9134 29.7724 4.6745 29.8751 4.42161 29.9163C4.16872 29.9574 3.90959 29.9357 3.66705 29.8532C3.4245 29.7706 3.20599 29.6296 3.03076 29.4427C2.85552 29.2558 2.72894 29.0286 2.66217 28.7812C2.17814 27.0083 2.0532 25.1565 2.29469 23.3347C2.53617 21.5128 3.13922 19.7575 4.06842 18.1719C5.92094 14.9727 8.96761 12.6398 12.5391 11.6855L1.56451 6.90625C1.33412 6.8059 1.13133 6.65145 0.973343 6.45602C0.815361 6.26058 0.706848 6.02992 0.657011 5.78361C0.607174 5.5373 0.617482 5.2826 0.687062 5.04112C0.756642 4.79965 0.88344 4.57851 1.0567 4.39648C2.27846 3.08793 3.75624 2.04457 5.39824 1.33122C7.04023 0.617866 8.81137 0.249756 10.6016 0.249756C12.3919 0.249756 14.163 0.617866 15.805 1.33122C17.447 2.04457 18.9248 3.08793 20.1465 4.39648C21.084 5.38429 21.8734 6.50268 22.4903 7.7168C23.1101 6.50206 23.9029 5.38365 24.8438 4.39648C26.0656 3.08793 27.5434 2.04457 29.1853 1.33122C30.8273 0.617866 32.5985 0.249756 34.3887 0.249756C36.179 0.249756 37.9501 0.617866 39.5921 1.33122C41.2341 2.04457 42.7119 3.08793 43.9337 4.39648C44.1087 4.57748 44.2374 4.79809 44.3088 5.03954C44.3802 5.28099 44.3922 5.53612 44.3438 5.7832Z" fill="white"/>
</svg>
