<svg width="20" height="12" viewBox="0 0 20 12" fill="none" xmlns="http://www.w3.org/2000/svg">
<path d="M10.2758 3.75267C12.4849 3.75267 14.2758 5.54355 14.2758 7.75265C14.2758 9.96185 12.4849 11.7526 10.2758 11.7526C8.06661 11.7526 6.27575 9.96185 6.27575 7.75265C6.27575 5.54355 8.06661 3.75267 10.2758 3.75267ZM10.2758 0.248047C14.8893 0.248047 18.8719 3.39806 19.9769 7.81245C20.0775 8.21425 19.8333 8.62155 19.4315 8.72215C19.0296 8.82265 18.6224 8.57855 18.5218 8.17665C17.5829 4.42601 14.1971 1.74805 10.2758 1.74805C6.35269 1.74805 2.96585 4.42831 2.02861 8.18125C1.92825 8.58305 1.52111 8.82745 1.11924 8.72715C0.717366 8.62675 0.472946 8.21965 0.573306 7.81775C1.6764 3.40077 5.66024 0.248047 10.2758 0.248047Z" fill="#BFBFBF"/>
</svg>
