<svg width="20" height="20" viewBox="0 0 20 20" fill="none" xmlns="http://www.w3.org/2000/svg">
<path d="M0.21967 0.219668C-0.0465996 0.485938 -0.0707998 0.902597 0.14705 1.19621L0.21967 1.28033L4.25424 5.3149C2.33225 6.66437 0.89577 8.6799 0.29888 11.0644C0.1983 11.4662 0.4425 11.8735 0.84431 11.9741C1.24613 12.0746 1.6534 11.8305 1.75399 11.4286C2.28346 9.3135 3.59112 7.53947 5.33416 6.39452L7.14379 8.2043C6.43628 8.9258 6 9.9143 6 11.0046C6 13.2138 7.79086 15.0046 10 15.0046C11.0904 15.0046 12.0788 14.5683 12.8004 13.8608L18.7197 19.7803C19.0126 20.0732 19.4874 20.0732 19.7803 19.7803C20.0466 19.5141 20.0708 19.0974 19.8529 18.8038L19.7803 18.7197L13.6668 12.6055L13.668 12.604L6.71877 5.65782L6.72 5.656L5.58672 4.52549L1.28033 0.219668C0.98744 -0.0732225 0.51256 -0.0732225 0.21967 0.219668ZM10 3.5C8.9997 3.5 8.0291 3.64807 7.11109 3.925L8.3481 5.16119C8.8839 5.05532 9.4364 5 10 5C13.9231 5 17.3099 7.68026 18.2471 11.4332C18.3475 11.835 18.7546 12.0794 19.1565 11.9791C19.5584 11.8787 19.8028 11.4716 19.7024 11.0697C18.5994 6.65272 14.6155 3.5 10 3.5ZM10.1947 7.00928L13.996 10.81C13.8942 8.7531 12.2472 7.10764 10.1947 7.00928Z" fill="#BFBFBF"/>
</svg>
