<svg width="32" height="37" viewBox="0 0 32 37" fill="none" xmlns="http://www.w3.org/2000/svg">
<path d="M17.4182 0.497042C16.5877 -0.165688 15.4159 -0.165688 14.5853 0.497088L7.02139 6.53269C5.18188 8.00053 5.406 10.5615 6.88973 11.8823L3.54312 14.6711C1.33975 16.5072 2.23132 19.9238 4.70865 20.6694L1.08242 24.1049C-1.17174 26.2406 0.322848 30.0638 3.41187 30.0638H11.4264V34.1099C11.4264 35.7059 12.706 37 14.2846 37H17.7143C19.2929 37 20.5725 35.7059 20.5725 34.1099V30.0638H28.5841C31.6744 30.0638 33.1685 26.238 30.9119 24.1033L27.2845 20.6715C29.767 19.93 30.6622 16.5094 28.4572 14.6714L25.1129 11.8835C26.5978 10.5631 26.8226 8.0009 24.9824 6.53264L17.4182 0.497042ZM13.7129 30.0638H18.2859V34.1099C18.2859 34.4292 18.0301 34.6879 17.7143 34.6879H14.2846C13.9689 34.6879 13.7129 34.4292 13.7129 34.1099V30.0638Z" fill="white"/>
</svg>
