<svg width="36" height="36" viewBox="0 0 36 36" fill="none" xmlns="http://www.w3.org/2000/svg">
<path d="M5.1409 0C2.30058 0 -0.00195312 2.30253 -0.00195312 5.14286V25.7143C3.5792 25.7143 5.82141 24.6811 7.3574 23.2475C8.93525 21.7749 9.89571 19.764 10.6801 17.5676C10.9487 16.8155 11.1849 16.078 11.4216 15.3392C11.5329 14.9916 11.6444 14.6437 11.7593 14.294C12.1083 13.2319 12.4839 12.1711 12.9507 11.2375C13.4174 10.3043 14.0141 9.41644 14.8493 8.7616C15.7124 8.08493 16.7578 7.71429 17.998 7.71429C19.2382 7.71429 20.2835 8.08493 21.1468 8.7616C21.982 9.41644 22.5788 10.3043 23.0452 11.2375C23.5122 12.1711 23.8879 13.2319 24.2368 14.294C24.3518 14.6437 24.4631 14.9916 24.5745 15.3392C24.811 16.0779 25.0474 16.8155 25.3161 17.5676C26.1004 19.7637 27.0608 21.7749 28.6386 23.2475C30.1748 24.6811 32.4168 25.7143 35.998 25.7143V5.14286C35.998 2.30253 33.6956 0 30.8552 0H5.1409ZM35.998 28.2857C31.865 28.2857 28.9642 27.0689 26.8841 25.1275C24.846 23.2251 23.7172 20.7363 22.8943 18.4325C22.6114 17.6401 22.3528 16.8328 22.1095 16.0737C22.0015 15.7367 21.8966 15.4091 21.794 15.0967C21.4497 14.0494 21.1223 13.1414 20.7454 12.3875C20.3681 11.6332 19.9806 11.1148 19.5602 10.7853C19.1678 10.4776 18.6864 10.2857 17.998 10.2857C17.3097 10.2857 16.8283 10.4776 16.4359 10.7853C16.0155 11.1148 15.6278 11.6332 15.2507 12.3875C14.8738 13.1414 14.5463 14.0494 14.2022 15.0967C14.0996 15.4091 13.9946 15.7366 13.8866 16.0736C13.6434 16.8327 13.3847 17.6401 13.1017 18.4325C12.279 20.7363 11.1501 23.2251 9.11191 25.1275C7.03183 27.0689 4.13118 28.2857 -0.00195312 28.2857V30.8571C-0.00195312 33.6975 2.30058 36 5.1409 36H30.8552C33.6956 36 35.998 33.6975 35.998 30.8571V28.2857Z" fill="white"/>
</svg>
