<svg width="50" height="50" viewBox="0 0 50 50" fill="none" xmlns="http://www.w3.org/2000/svg">
<path d="M31.25 43.75L18.75 39.375L9.0625 43.125C8.36806 43.4028 7.72569 43.3243 7.13542 42.8896C6.54514 42.4549 6.25 41.8736 6.25 41.1458V11.9792C6.25 11.5278 6.38056 11.1285 6.64167 10.7812C6.90278 10.434 7.25833 10.1736 7.70833 10L18.75 6.25L31.25 10.625L40.9375 6.875C41.6319 6.59722 42.2743 6.67569 42.8646 7.11042C43.4549 7.54514 43.75 8.12639 43.75 8.85417V38.0208C43.75 38.4722 43.6194 38.8715 43.3583 39.2188C43.0972 39.566 42.7417 39.8264 42.2917 40L31.25 43.75ZM29.1667 38.6458V14.2708L20.8333 11.3542V35.7292L29.1667 38.6458Z" fill="white"/>
</svg>
