<svg width="10" height="10" viewBox="0 0 10 10" fill="none" xmlns="http://www.w3.org/2000/svg">
<path d="M0.881282 8.46429C0.539574 8.806 0.539574 9.36002 0.881283 9.70173C1.22299 10.0434 1.77701 10.0434 2.11872 9.70173L5 6.82045L7.88128 9.70173C8.22299 10.0434 8.77701 10.0434 9.11872 9.70173C9.46043 9.36002 9.46043 8.806 9.11872 8.46429L5.61872 4.96429C5.27701 4.62258 4.72299 4.62258 4.38128 4.96429L0.881282 8.46429Z" fill="#018C79"/>
<path d="M0.881282 3.79762C0.539573 4.13933 0.539573 4.69335 0.881282 5.03506C1.22299 5.37677 1.77701 5.37677 2.11872 5.03506L5 2.15378L7.88128 5.03506C8.22299 5.37677 8.77701 5.37677 9.11872 5.03506C9.46043 4.69335 9.46043 4.13933 9.11872 3.79762L5.61872 0.297623C5.27701 -0.0440863 4.72299 -0.0440863 4.38128 0.297623L0.881282 3.79762Z" fill="#018C79"/>
</svg>
