<svg width="40" height="40" viewBox="0 0 40 40" fill="none" xmlns="http://www.w3.org/2000/svg">
<circle cx="20" cy="20" r="20" fill="#83DE60"/>
<path d="M15.5 19.5V17.5H24.5V19.5H15.5ZM12 11C10.8954 11 10 11.8954 10 13C10 13.7403 10.4022 14.3866 11 14.7324V28.25C11 28.6642 11.3358 29 11.75 29H14V23.75C14 23.3358 14.3358 23 14.75 23H18.75C19.1642 23 19.5 23.3358 19.5 23.75V29H28.25C28.6642 29 29 28.6642 29 28.25V14.7324C29.5978 14.3866 30 13.7403 30 13C30 11.8954 29.1046 11 28 11H12ZM11.5 13C11.5 12.7239 11.7239 12.5 12 12.5H28C28.2761 12.5 28.5 12.7239 28.5 13C28.5 13.2761 28.2761 13.5 28 13.5H12C11.7239 13.5 11.5 13.2761 11.5 13ZM14.75 16H25.25C25.6642 16 26 16.3358 26 16.75V20.25C26 20.6642 25.6642 21 25.25 21H14.75C14.3358 21 14 20.6642 14 20.25V16.75C14 16.3358 14.3358 16 14.75 16ZM22.75 23H25.25C25.6642 23 26 23.3358 26 23.75V26.25C26 26.6642 25.6642 27 25.25 27H22.75C22.3358 27 22 26.6642 22 26.25V23.75C22 23.3358 22.3358 23 22.75 23ZM18 24.5V29H15.5V24.5H18Z" fill="white"/>
</svg>
