<svg width="27" height="26" viewBox="0 0 27 26" fill="none" xmlns="http://www.w3.org/2000/svg">
<path d="M3.01776 1.15186H24.8077C25.1689 1.15186 25.5153 1.29534 25.7707 1.55074C26.0261 1.80614 26.1696 2.15254 26.1696 2.51373V4.67366C26.1695 5.03482 26.026 5.38117 25.7706 5.63651L17.0355 14.3716C16.7801 14.6269 16.6366 14.9732 16.6365 15.3344V23.921C16.6364 24.1279 16.5893 24.332 16.4985 24.5179C16.4078 24.7038 16.2759 24.8666 16.1129 24.994C15.9499 25.1213 15.76 25.2098 15.5576 25.2528C15.3552 25.2958 15.1458 25.2921 14.9451 25.242L12.2213 24.5611C11.9265 24.4876 11.6648 24.3176 11.4778 24.0783C11.2907 23.8389 11.1891 23.5439 11.189 23.2401V15.3344C11.1889 14.9732 11.0454 14.6269 10.79 14.3716L2.05491 5.63651C1.79949 5.38117 1.65596 5.03482 1.65588 4.67366V2.51373C1.65588 2.15254 1.79937 1.80614 2.05477 1.55074C2.31017 1.29534 2.65657 1.15186 3.01776 1.15186Z" fill="white" stroke="white" stroke-width="1.36187" stroke-linecap="round" stroke-linejoin="round"/>
</svg>
