<svg width="17" height="19" viewBox="0 0 17 19" fill="none" xmlns="http://www.w3.org/2000/svg">
<path d="M15.6579 16.2857C15.6579 16.5345 15.4575 16.7381 15.2105 16.7381H10.0817C9.82475 17.2366 9.49924 17.6933 9.11773 18.0952H15.2105C16.1983 18.0952 17 17.2846 17 16.2857V7.08248C17 6.60295 16.8112 6.14243 16.4757 5.80314L11.2603 0.53019C11.2468 0.516664 11.2317 0.50493 11.2167 0.493276C11.2055 0.484654 11.1945 0.476086 11.1842 0.466857C11.1207 0.408952 11.0581 0.351952 10.9883 0.304C10.9656 0.288565 10.9409 0.276387 10.9162 0.264254C10.9019 0.257188 10.8876 0.250139 10.8737 0.242476C10.8588 0.233962 10.8439 0.225259 10.829 0.216537C10.7805 0.188163 10.7318 0.159672 10.6805 0.137524C10.5042 0.0633333 10.3145 0.026238 10.1222 0.0126666C10.1045 0.0115266 10.0871 0.00912005 10.0695 0.00670433C10.0453 0.00335671 10.021 0 9.996 0H4.47368C3.48589 0 2.68421 0.810667 2.68421 1.80952V8.59361C3.10847 8.41465 3.55818 8.28509 4.02632 8.21198V1.80952C4.02632 1.56071 4.22674 1.35714 4.47368 1.35714H9.8421V5.42857C9.8421 6.42743 10.6438 7.2381 11.6316 7.2381H15.6579V16.2857ZM11.1842 2.37138L14.654 5.88095H11.6316C11.3846 5.88095 11.1842 5.67738 11.1842 5.42857V2.37138ZM9.8421 14.0238C9.8421 16.7721 7.63888 19 4.92105 19C2.20323 19 0 16.7721 0 14.0238C0 11.2755 2.20323 9.04762 4.92105 9.04762C7.63888 9.04762 9.8421 11.2755 9.8421 14.0238ZM4.92105 10.8571C4.67398 10.8571 4.47368 11.0597 4.47368 11.3095V14.9286C4.47368 15.1784 4.67398 15.381 4.92105 15.381C5.16813 15.381 5.36842 15.1784 5.36842 14.9286V11.3095C5.36842 11.0597 5.16813 10.8571 4.92105 10.8571ZM4.92105 17.3036C5.2299 17.3036 5.48026 17.0504 5.48026 16.7381C5.48026 16.4258 5.2299 16.1726 4.92105 16.1726C4.61221 16.1726 4.36184 16.4258 4.36184 16.7381C4.36184 17.0504 4.61221 17.3036 4.92105 17.3036Z" fill="#757575"/>
</svg>
