<svg width="17" height="19" viewBox="0 0 17 19" fill="none" xmlns="http://www.w3.org/2000/svg">
<path d="M15.6579 16.2857C15.6579 16.5345 15.4575 16.7381 15.2105 16.7381H10.0817C9.82475 17.2366 9.49924 17.6933 9.11773 18.0952H15.2105C16.1983 18.0952 17 17.2846 17 16.2857V7.08248C17 6.60295 16.8112 6.14243 16.4757 5.80314L11.2603 0.53019C11.2468 0.516664 11.2317 0.50493 11.2167 0.493276C11.2055 0.484654 11.1945 0.476086 11.1842 0.466857C11.1207 0.408952 11.0581 0.351952 10.9883 0.304C10.9656 0.288565 10.9409 0.276387 10.9162 0.264254C10.9019 0.257188 10.8876 0.250139 10.8737 0.242476C10.8588 0.233962 10.8439 0.225259 10.829 0.216537C10.7805 0.188163 10.7318 0.159672 10.6805 0.137524C10.5042 0.0633333 10.3145 0.026238 10.1222 0.0126666C10.1045 0.0115266 10.0871 0.00912005 10.0695 0.00670433C10.0453 0.00335671 10.021 0 9.996 0H4.47368C3.48589 0 2.68421 0.810667 2.68421 1.80952V8.59361C3.10847 8.41465 3.55818 8.28509 4.02632 8.21198V1.80952C4.02632 1.56071 4.22674 1.35714 4.47368 1.35714H9.8421V5.42857C9.8421 6.42743 10.6438 7.2381 11.6316 7.2381H15.6579V16.2857ZM11.1842 2.37138L14.654 5.88095H11.6316C11.3846 5.88095 11.1842 5.67738 11.1842 5.42857V2.37138ZM0 14.0238C0 16.7721 2.20323 19 4.92105 19C7.63888 19 9.8421 16.7721 9.8421 14.0238C9.8421 11.2755 7.63888 9.04762 4.92105 9.04762C2.20323 9.04762 0 11.2755 0 14.0238ZM7.60526 10.8571C7.85234 10.8571 8.05263 11.0597 8.05263 11.3095V13.119C8.05263 13.3689 7.85234 13.5714 7.60526 13.5714H5.81579C5.56872 13.5714 5.36842 13.3689 5.36842 13.119C5.36842 12.8692 5.56872 12.6667 5.81579 12.6667H6.71077C6.30219 12.1166 5.65238 11.7619 4.92107 11.7619C4.17535 11.7619 3.51479 12.1304 3.10764 12.6992C2.96277 12.9016 2.68308 12.947 2.48294 12.8004C2.2828 12.6539 2.23799 12.3711 2.38286 12.1687C2.95104 11.375 3.87626 10.8571 4.92107 10.8571C5.79768 10.8571 6.58983 11.2215 7.15789 11.8077V11.3095C7.15789 11.0597 7.35819 10.8571 7.60526 10.8571ZM2.68421 16.2399V16.7381C2.68421 16.9879 2.48391 17.1905 2.23684 17.1905C1.98977 17.1905 1.78947 16.9879 1.78947 16.7381V14.9286C1.78947 14.6788 1.98977 14.4762 2.23684 14.4762H4.02632C4.27339 14.4762 4.47368 14.6788 4.47368 14.9286C4.47368 15.1784 4.27339 15.381 4.02632 15.381H3.13136C3.53995 15.931 4.18975 16.2857 4.92107 16.2857C5.60673 16.2857 6.22002 15.9743 6.63104 15.4821C6.79044 15.2912 7.0727 15.2671 7.26147 15.4283C7.45025 15.5895 7.47406 15.875 7.31466 16.0658C6.74091 16.7529 5.8813 17.1905 4.92107 17.1905C4.04444 17.1905 3.25228 16.8261 2.68421 16.2399Z" fill="#757575"/>
</svg>
