<svg width="41" height="41" viewBox="0 0 41 41" fill="none" xmlns="http://www.w3.org/2000/svg">
<path d="M37.2833 40.375L23.3708 26.4625C22.2667 27.3458 20.9969 28.0451 19.5615 28.5604C18.126 29.0757 16.5986 29.3333 14.9792 29.3333C10.9674 29.3333 7.57242 27.9436 4.79433 25.164C2.01625 22.3844 0.626472 18.9895 0.625 14.9792C0.625 10.9674 2.01478 7.57242 4.79433 4.79433C7.57389 2.01625 10.9688 0.626472 14.9792 0.625C18.991 0.625 22.3859 2.01478 25.164 4.79433C27.9421 7.57389 29.3319 10.9688 29.3333 14.9792C29.3333 16.5986 29.0757 18.126 28.5604 19.5615C28.0451 20.9969 27.3458 22.2667 26.4625 23.3708L40.375 37.2833L37.2833 40.375ZM14.9792 24.9167C17.7396 24.9167 20.0863 23.9502 22.0193 22.0171C23.9524 20.0841 24.9181 17.7381 24.9167 14.9792C24.9167 12.2188 23.9502 9.87203 22.0171 7.939C20.0841 6.00597 17.7381 5.04019 14.9792 5.04167C12.2188 5.04167 9.87203 6.00818 7.939 7.94121C6.00597 9.87424 5.04019 12.2202 5.04167 14.9792C5.04167 17.7396 6.00818 20.0863 7.94121 22.0193C9.87424 23.9524 12.2202 24.9181 14.9792 24.9167Z" fill="#2A2A2A"/>
</svg>
