<svg width="45" height="45" viewBox="0 0 45 45" fill="none" xmlns="http://www.w3.org/2000/svg">
<path d="M18.3923 0.429932C19.9536 0.429932 20.8436 1.9846 20.8436 3.54589V13.1146H18.8671C18.4828 12.1644 17.7799 11.3775 16.879 10.8887C15.9781 10.4 14.9352 10.2397 13.9291 10.4355C12.923 10.6313 12.0163 11.1709 11.3645 11.9619C10.7126 12.7528 10.3561 13.7459 10.3561 14.7708C10.3561 15.7958 10.7126 16.7889 11.3645 17.5798C12.0163 18.3708 12.923 18.9104 13.9291 19.1062C14.9352 19.302 15.9781 19.1417 16.879 18.653C17.7799 18.1642 18.4828 17.3773 18.8671 16.4271H20.8436V40.4935C20.8436 41.8097 20.2871 43.1192 19.1145 43.7177C18.0512 44.2746 16.8698 44.5685 15.6695 44.5745C12.3349 44.5745 9.85492 42.8873 8.2583 40.891C7.15254 39.5133 6.3815 37.8979 6.0058 36.1718C4.97454 35.8675 4.01945 35.3482 3.20342 34.6481C1.6355 33.2988 0.416504 31.1346 0.416504 27.9458C0.416504 26.2785 0.535754 24.8254 0.836087 23.6042H10.1332C11.6304 23.6042 12.8715 24.7083 13.0813 26.146C12.1348 26.5375 11.3539 27.2458 10.8721 28.1497C10.3904 29.0536 10.2377 30.0968 10.4403 31.1008C10.6429 32.1048 11.1882 33.0072 11.9828 33.6535C12.7773 34.2998 13.7719 34.6499 14.7961 34.6438C15.8203 34.6376 16.8106 34.2757 17.5974 33.62C18.3842 32.9642 18.9186 32.0554 19.1092 31.049C19.2998 30.0427 19.1347 29.0014 18.6422 28.1033C18.1497 27.2053 17.3603 26.5063 16.4093 26.1261C16.2932 24.5408 15.5817 23.0581 14.4175 21.9758C13.2533 20.8936 11.7227 20.2919 10.1332 20.2917H2.71317C3.04386 20.0184 3.41197 19.7938 3.8063 19.6248C3.57866 18.8133 3.44674 17.9781 3.41321 17.136C3.34034 15.5128 3.58325 13.8235 4.06467 12.3196C4.54167 10.84 5.29692 9.39797 6.35692 8.40202C7.02185 7.7541 7.86425 7.31829 8.77725 7.14989C9.21671 5.29489 10.3363 3.76231 11.7651 2.65152C13.6003 1.22052 16.0051 0.429932 18.3901 0.429932H18.3923ZM24.1561 33.5417H27.7998C29.469 33.5417 31.0699 32.8786 32.2502 31.6983C33.4305 30.518 34.0936 28.9171 34.0936 27.2479V23.284C35.0438 22.8996 35.8307 22.1967 36.3195 21.2958C36.8082 20.3949 36.9685 19.352 36.7727 18.346C36.5769 17.3399 36.0373 16.4332 35.2463 15.7813C34.4554 15.1294 33.4623 14.7729 32.4373 14.7729C31.4124 14.7729 30.4193 15.1294 29.6284 15.7813C28.8374 16.4332 28.2978 17.3399 28.102 18.346C27.9062 19.352 28.0664 20.3949 28.5552 21.2958C29.044 22.1967 29.8309 22.8996 30.7811 23.284V27.2479C30.7811 28.0386 30.467 28.7969 29.9079 29.356C29.3488 29.9151 28.5905 30.2292 27.7998 30.2292H24.1561V3.54589C24.1561 1.9846 25.046 0.429932 26.6073 0.429932C28.9968 0.429932 31.3994 1.22052 33.2345 2.65152C34.6633 3.76231 35.783 5.2971 36.2224 7.14989C37.1499 7.30447 37.9758 7.77706 38.6427 8.40202C39.7028 9.39797 40.458 10.8378 40.935 12.3196C41.4164 13.8235 41.6593 15.5128 41.5865 17.136C41.5489 17.9663 41.4275 18.8143 41.1934 19.6248L41.3391 19.691C42.1562 20.0753 42.8187 20.6781 43.3134 21.4798C44.2519 22.9925 44.5832 25.1699 44.5832 27.9458C44.5832 31.1368 43.3642 33.3032 41.7963 34.6481C40.9796 35.3485 40.0237 35.8678 38.9917 36.1718C38.6165 37.8977 37.8463 39.5131 36.7414 40.891C35.1448 42.8873 32.6648 44.5745 29.328 44.5745C28.1279 44.5691 26.9465 44.2761 25.883 43.7199C24.7126 43.1192 24.1561 41.8097 24.1561 40.4935V33.5417ZM13.6665 14.7708C13.6665 14.478 13.7828 14.1972 13.9899 13.9901C14.197 13.783 14.4778 13.6667 14.7707 13.6667C15.0635 13.6667 15.3444 13.783 15.5514 13.9901C15.7585 14.1972 15.8748 14.478 15.8748 14.7708C15.8748 15.0637 15.7585 15.3445 15.5514 15.5516C15.3444 15.7587 15.0635 15.875 14.7707 15.875C14.4778 15.875 14.197 15.7587 13.9899 15.5516C13.7828 15.3445 13.6665 15.0637 13.6665 14.7708ZM14.7707 29.125C14.4778 29.125 14.197 29.2413 13.9899 29.4484C13.7828 29.6555 13.6665 29.9363 13.6665 30.2292C13.6665 30.522 13.7828 30.8029 13.9899 31.0099C14.197 31.217 14.4778 31.3333 14.7707 31.3333C15.0635 31.3333 15.3444 31.217 15.5514 31.0099C15.7585 30.8029 15.8748 30.522 15.8748 30.2292C15.8748 29.9363 15.7585 29.6555 15.5514 29.4484C15.3444 29.2413 15.0635 29.125 14.7707 29.125ZM31.3332 19.1875C31.3332 19.4804 31.4495 19.7612 31.6566 19.9683C31.8636 20.1753 32.1445 20.2917 32.4373 20.2917C32.7302 20.2917 33.011 20.1753 33.2181 19.9683C33.4252 19.7612 33.5415 19.4804 33.5415 19.1875C33.5415 18.8947 33.4252 18.6138 33.2181 18.4067C33.011 18.1997 32.7302 18.0833 32.4373 18.0833C32.1445 18.0833 31.8636 18.1997 31.6566 18.4067C31.4495 18.6138 31.3332 18.8947 31.3332 19.1875Z" fill="#2A2A2A"/>
</svg>
