<svg width="43" height="50" viewBox="0 0 43 50" fill="none" xmlns="http://www.w3.org/2000/svg">
<path d="M18.4671 30.6699C18.6016 27.759 18.7362 24.8857 18.8707 21.9882C16.0633 21.0762 14.7181 18.8674 13.9057 16.2968C12.5349 11.9398 12.6694 7.63524 14.8056 3.52844C15.2836 2.64285 15.9138 1.84829 16.6673 1.18112C18.3891 -0.371211 20.5535 -0.377937 22.3641 1.0735C24.0792 2.44827 24.9952 4.33285 25.5481 6.39903C26.6242 10.4238 26.4669 14.3813 24.6361 18.1773C23.7658 19.9826 22.508 21.438 20.3826 21.9842C20.501 24.4956 20.6194 27.0057 20.7297 29.3328C21.3942 28.749 22.1085 28.141 22.7932 27.5021C22.8539 27.4298 22.8981 27.3452 22.9227 27.2542C22.9474 27.1631 22.9518 27.0677 22.9358 26.9748C22.586 25.4426 22.9533 24.0154 23.6918 22.7079C25.914 18.7867 29.2419 16.3398 33.7025 15.5206C34.3894 15.4083 35.0899 15.4083 35.7768 15.5206C38.3945 15.9121 39.6778 17.9325 39.0388 20.5839C38.5667 22.537 37.4838 24.1378 36.0889 25.5408C34.0577 27.5855 31.6834 29.0477 28.8115 29.6046C26.67 30.0202 25.4324 29.7391 23.6649 28.484C22.5693 29.4065 21.6524 30.5222 20.9597 31.7757C20.8857 31.9126 20.8495 32.0667 20.8548 32.2223C21.062 36.5376 21.2749 40.8524 21.4938 45.1669C21.4938 45.1817 21.5193 45.1951 21.5368 45.2139C22.1906 44.5857 22.8497 43.9656 23.486 43.3226C23.5396 43.2584 23.5784 43.1832 23.5995 43.1023C23.6207 43.0213 23.6237 42.9367 23.6084 42.8545C23.1066 41.0318 23.5021 39.31 24.3778 37.7429C27.0547 32.9393 31.0902 29.9812 36.5758 29.1163C37.7129 28.9372 38.8772 29.0654 39.9482 29.4875C42.1287 30.3323 43.1376 32.4873 42.5322 35.0175C41.8327 37.9339 40.08 40.1628 37.851 42.0501C35.4486 44.084 32.7475 45.5153 29.5608 45.8784C27.43 46.1219 26.0216 45.7076 24.2514 44.2346C23.4026 45.2529 22.5188 46.2524 21.7238 47.3124C21.5355 47.5653 21.631 48.0401 21.6216 48.4128C21.6081 48.9226 21.6216 49.4337 21.6216 50.0001H17.5645C17.5968 49.3019 17.5901 48.6118 17.6721 47.9325C17.7421 47.3514 17.6116 46.8914 17.1973 46.4811C16.7547 46.0439 16.3418 45.5744 15.9032 45.1036C14.0698 46.7326 12.0143 46.7273 9.94816 46.1058C5.67455 44.8198 2.46363 42.2573 0.731048 38.0509C0.539687 37.573 0.420019 37.0694 0.375923 36.5564C0.131102 33.9454 1.72109 32.2021 4.41144 32.1348C7.30893 32.0649 9.77463 33.2298 12.0076 34.9422C14.1491 36.5887 15.8683 38.5634 16.5274 41.2564C16.6791 41.9531 16.7096 42.6707 16.6175 43.3778C16.5651 43.8567 16.5906 44.1741 17.0009 44.4539C17.2511 44.6221 17.4542 44.8575 17.7771 45.1615C17.8457 43.8365 17.9116 42.6393 17.9681 41.4421C18.0932 38.7813 18.221 36.1206 18.3299 33.4598C18.3407 33.2069 18.3124 32.8908 18.1712 32.7038C17.4461 31.7461 16.678 30.8206 15.9032 29.8575C13.5546 31.7985 11.0996 31.4421 8.69446 30.4951C5.03156 29.0557 2.19056 26.6452 0.70549 22.9029C0.409024 22.1313 0.271752 21.3077 0.301939 20.4816C0.374578 18.4746 1.82064 17.1321 3.9191 16.9425C6.01757 16.7528 7.95462 17.3393 9.78405 18.3199C12.2847 19.6651 14.3361 21.4932 15.7028 24.014C16.4521 25.3982 16.896 26.8564 16.5314 28.4639C16.5208 28.5574 16.5304 28.6521 16.5594 28.7417C16.5884 28.8312 16.6362 28.9135 16.6996 28.9831C17.243 29.536 17.8228 30.0592 18.4671 30.6699Z" fill="white"/>
</svg>
