<svg width="20" height="19" viewBox="0 0 20 19" fill="none" xmlns="http://www.w3.org/2000/svg">
<path d="M19.0363 16.2974L15.0169 12.2781C15.8474 11.0264 16.3335 9.52781 16.3335 7.91675C16.3335 3.55145 12.782 0 8.41675 0C4.05145 0 0.5 3.55145 0.5 7.91675C0.5 12.282 4.05145 15.8335 8.41675 15.8335C10.0278 15.8335 11.5264 15.3474 12.7781 14.5169L16.7974 18.5363C17.4149 19.1546 18.4188 19.1546 19.0363 18.5363C19.6546 17.918 19.6546 16.9157 19.0363 16.2974ZM2.87502 7.91675C2.87502 4.86088 5.36088 2.37502 8.41675 2.37502C11.4726 2.37502 13.9585 4.86088 13.9585 7.91675C13.9585 10.9726 11.4726 13.4585 8.41675 13.4585C5.36088 13.4585 2.87502 10.9726 2.87502 7.91675Z" fill="#848686"/>
</svg>
