<svg width="20" height="20" viewBox="0 0 20 20" fill="none" xmlns="http://www.w3.org/2000/svg">
<path fill-rule="evenodd" clip-rule="evenodd" d="M10.0007 6.66634C9.1166 6.66634 8.26875 7.01753 7.64363 7.64265C7.01851 8.26777 6.66732 9.11562 6.66732 9.99967C6.66732 10.8837 7.01851 11.7316 7.64363 12.3567C8.26875 12.9818 9.1166 13.333 10.0007 13.333C10.8847 13.333 11.7326 12.9818 12.3577 12.3567C12.9828 11.7316 13.334 10.8837 13.334 9.99967C13.334 9.11562 12.9828 8.26777 12.3577 7.64265C11.7326 7.01753 10.8847 6.66634 10.0007 6.66634ZM8.82214 8.82116C9.1347 8.5086 9.55862 8.33301 10.0007 8.33301C10.4427 8.33301 10.8666 8.5086 11.1792 8.82116C11.4917 9.13372 11.6673 9.55765 11.6673 9.99967C11.6673 10.4417 11.4917 10.8656 11.1792 11.1782C10.8666 11.4907 10.4427 11.6663 10.0007 11.6663C9.55862 11.6663 9.1347 11.4907 8.82214 11.1782C8.50958 10.8656 8.33398 10.4417 8.33398 9.99967C8.33398 9.55765 8.50958 9.13372 8.82214 8.82116Z" fill="#757575"/>
<path fill-rule="evenodd" clip-rule="evenodd" d="M9.15148 0.833008C8.77294 0.833008 8.44196 1.08814 8.3456 1.45421L7.9233 3.05855L6.5816 3.62414L5.55456 2.71041C5.2248 2.41703 4.72349 2.43166 4.4114 2.74375L2.74473 4.41042C2.44281 4.71234 2.41794 5.19361 2.68712 5.52505L3.58723 6.6333L3.03527 7.99124L1.47786 8.35483C1.10075 8.44287 0.833984 8.77909 0.833984 9.16634V10.833C0.833984 11.2088 1.08547 11.5381 1.448 11.637L3.05773 12.0761L3.62485 13.4214L2.71203 14.445C2.41802 14.7747 2.43237 15.2766 2.74473 15.5889L4.4114 17.2556C4.71372 17.5579 5.1958 17.5824 5.52719 17.3123L6.63506 16.4091L7.95961 16.954L8.35934 18.537C8.45278 18.9071 8.78566 19.1663 9.16732 19.1663H10.834C11.2155 19.1663 11.5483 18.9073 11.6419 18.5374L12.0426 16.9537L13.4115 16.3868C13.5492 16.5022 13.7072 16.6379 13.8645 16.7748C14.0207 16.9108 14.1659 17.039 14.2721 17.1333C14.3252 17.1804 14.3684 17.2189 14.3983 17.2456L14.4435 17.2861C14.7731 17.5817 15.2769 17.5686 15.5899 17.2556L17.2566 15.5889C17.5633 15.2822 17.5834 14.7915 17.3029 14.4607L16.3951 13.3902L16.9569 12.0335L18.5436 11.6212C18.9109 11.5258 19.1673 11.1942 19.1673 10.8147V9.16634C19.1673 8.78524 18.9088 8.4527 18.5394 8.35873L16.9625 7.95754L16.4023 6.60412L17.3037 5.53763C17.5834 5.20676 17.5629 4.71677 17.2566 4.41042L15.5899 2.74375C15.2823 2.43616 14.7899 2.4169 14.4592 2.69955L13.4006 3.6044L11.9995 3.02834L11.5858 1.45448C11.4895 1.08828 11.1585 0.833008 10.7798 0.833008H9.15148ZM15.5353 14.9532L14.9652 15.5233L14.9589 15.5179C14.6512 15.2499 14.2547 14.9108 14.0311 14.7509C13.7971 14.5836 13.4934 14.5489 13.2276 14.6589L11.0184 15.5739C10.7753 15.6746 10.594 15.8843 10.5294 16.1394L10.1853 17.4997H9.81638L9.47279 16.139C9.40815 15.883 9.22602 15.6728 8.98184 15.5723L6.81017 14.679C6.52739 14.5627 6.20361 14.6106 5.96661 14.8038L5.0576 15.5448L4.47975 14.9669L5.21927 14.1376C5.43336 13.8976 5.49016 13.5557 5.36521 13.2593L4.43604 11.0551C4.33663 10.8193 4.13437 10.6422 3.88747 10.5749L2.50065 10.1966V9.82753L3.83427 9.51619C4.09773 9.45468 4.31494 9.2691 4.41681 9.01847L5.31681 6.8043C5.43128 6.52269 5.38332 6.2011 5.19168 5.96514L4.45458 5.05759L5.03405 4.47812L5.86674 5.21894C6.1068 5.43252 6.44827 5.48905 6.74436 5.36423L8.94852 4.43507C9.18676 4.33464 9.36489 4.12932 9.4307 3.8793L9.79385 2.49967H10.1372L10.493 3.8532C10.5594 4.10585 10.7405 4.31273 10.9821 4.41207L13.2379 5.33957C13.5271 5.45848 13.8586 5.40548 14.0963 5.2023L14.9563 4.46718L15.5361 5.04702L14.8017 5.91588C14.6005 6.15399 14.5489 6.48452 14.6682 6.77258L15.5823 8.98091C15.6829 9.22378 15.8921 9.40497 16.1468 9.46978L17.5006 9.81421V10.1702L16.1361 10.5248C15.8831 10.5905 15.6757 10.7711 15.5757 11.0126L14.6607 13.2226C14.5412 13.5111 14.5931 13.8421 14.7951 14.0803L15.5353 14.9532Z" fill="#757575"/>
</svg>
