<svg width="47" height="31" viewBox="0 0 47 31" fill="none" xmlns="http://www.w3.org/2000/svg">
<path d="M15.5959 28.7011C12.7459 30.2459 9.80919 31.1145 6.66261 30.431C2.26663 29.4749 -0.444831 25.2776 0.0602452 20.477C0.650667 14.8689 3.2446 10.5958 7.89522 7.67955C10.6752 5.92775 13.3699 3.99961 16.4353 2.77248C23.151 0.0908699 29.9507 -0.621798 36.8413 1.98257C39.7948 3.1004 42.5776 4.56508 44.5839 7.22921C49.2807 13.4465 46.8225 23.5331 39.8913 26.4567C37.5898 27.4288 35.2169 27.3224 32.8776 26.7992C30.9287 26.3619 29.0315 25.6741 27.1175 25.0751C26.9888 25.0343 26.8671 24.8127 26.8265 24.6524C25.9297 21.1037 23.6085 19.5413 20.1975 20.3968C18.8916 20.745 17.6439 21.2973 16.4969 22.0349C14.5382 23.2664 14.0121 26.0093 15.1915 28.054C15.2993 28.2391 15.4182 28.4169 15.5959 28.7011Z" fill="white"/>
</svg>
