<svg width="20" height="20" viewBox="0 0 20 20" fill="none" xmlns="http://www.w3.org/2000/svg">
<path d="M3.79073 1C2.71032 1 1.81854 1.84137 1.76023 2.9157L1.00303 16.8657C0.940079 18.0253 1.86735 19 3.03352 19H5.59429C6.76047 19 7.68774 18.0253 7.62479 16.8657L6.86759 2.9157C6.80927 1.84137 5.91749 1 4.83709 1H3.79073ZM3.34898 2.98857C3.36842 2.63046 3.66568 2.35 4.02582 2.35C4.38596 2.35 4.74279 2.35 4.74279 2.35C5.10292 2.35 5.40019 2.63046 5.41963 2.98857C5.43907 3.34668 6.17683 16.9385 6.17683 16.9385C6.19781 17.3251 5.88873 17.65 5.5 17.65H3.26861C2.87988 17.65 2.5708 17.3251 2.59177 16.9385C2.59177 16.9385 3.32954 3.34668 3.34898 2.98857ZM7.71378 19C8.07112 18.629 8.33083 18.0151 8.4532 17.5H9.51051V13.825C9.51051 12.9552 10.2186 12.25 11.0921 12.25H14.7071C15.5806 12.25 16.2887 12.9552 16.2887 13.825V17.5H16.8222C17.1965 17.5 17.5 17.3478 17.5 16.975V6.5L12.9075 10.8543C12.7096 11.0362 12.4225 11.0842 12.1759 10.9766C11.9292 10.8691 11.7699 10.6264 11.7699 10.3583V6.5L8.1294 9.84648L8.03441 7.73826L11.988 4.10401C12.1858 3.92216 12.4729 3.87414 12.7196 3.98167C12.9662 4.08921 13.1256 4.33189 13.1256 4.6V8.4583L17.8624 4.10401C18.0603 3.92216 18.3474 3.87414 18.594 3.98167C18.8407 4.0892 19 4.33189 19 4.6V16.975C19 18.0933 18.0896 19 16.9665 19H7.71378ZM10.8661 13.825V17.5H14.9331V13.825C14.9331 13.7007 14.8319 13.6 14.7071 13.6H11.0921C10.9673 13.6 10.8661 13.7007 10.8661 13.825Z" fill="#757575"/>
</svg>
