<svg width="14" height="14" viewBox="0 0 14 14"  xmlns="http://www.w3.org/2000/svg">
<path fill-rule="evenodd" clip-rule="evenodd" d="M6.53333 4.2C6.53333 3.08609 6.97583 2.0178 7.76349 1.23015C8.55114 0.442499 9.61942 0 10.7333 0L14 0V3.26667C14 4.38058 13.5575 5.44886 12.7698 6.23652C11.9822 7.02417 10.9139 7.46667 9.8 7.46667H7.46667V14H6.53333V10.2667H4.2C3.08609 10.2667 2.0178 9.82417 1.23015 9.03652C0.442499 8.24886 0 7.18058 0 6.06667L0 2.8H3.26667C4.5864 2.8 5.76333 3.40853 6.53333 4.3596V4.2ZM7.60293 5.73627L10.4029 2.93627L11.0637 3.59707L8.26373 6.39707L7.60293 5.73627ZM5.73627 9.19707L2.93627 6.39707L3.59707 5.73627L6.39707 8.53627L5.73627 9.19707Z"/>
</svg>
