<svg width="51" height="51" viewBox="0 0 51 51" fill="none" xmlns="http://www.w3.org/2000/svg">
<path d="M46.2648 32.86C45.8412 36.2676 44.2927 39.4364 41.8646 41.8645C39.4366 44.2925 36.2678 45.841 32.8602 46.2646C32.5728 46.2988 32.295 46.3894 32.0428 46.5312C31.7905 46.673 31.5688 46.8633 31.3903 47.091C31.2118 47.3188 31.08 47.5796 31.0025 47.8584C30.9251 48.1372 30.9035 48.4286 30.9389 48.7158C31.0935 49.9304 32.1977 50.7917 33.4123 50.6371C42.4444 49.5108 49.5331 42.4221 50.6594 33.39C50.7919 32.1754 49.9306 31.0712 48.716 30.9387C48.4284 30.9008 48.1362 30.9207 47.8564 30.9972C47.5766 31.0737 47.3149 31.2053 47.0866 31.3842C46.8583 31.5631 46.668 31.7858 46.5269 32.0392C46.3858 32.2927 46.2967 32.5717 46.2648 32.86ZM41.6052 33.6992C41.6782 33.4179 41.695 33.1249 41.6545 32.8371C41.6141 32.5493 41.5172 32.2723 41.3695 32.022C41.2218 31.7717 41.0261 31.553 40.7937 31.3785C40.5613 31.204 40.2968 31.0771 40.0152 31.005C39.7339 30.9308 39.4406 30.9131 39.1524 30.953C38.8641 30.9929 38.5867 31.0896 38.3361 31.2375C38.0856 31.3854 37.8668 31.5815 37.6926 31.8145C37.5183 32.0475 37.392 32.3128 37.321 32.595C37.0244 33.7376 36.4279 34.7803 35.5931 35.615C34.7584 36.4498 33.7157 37.0463 32.5731 37.3429C32.0054 37.49 31.5192 37.8562 31.2211 38.3613C30.9231 38.8664 30.8375 39.469 30.9831 40.0371C31.2923 41.2075 32.5069 41.9142 33.6773 41.6271C35.5843 41.13 37.3243 40.1333 38.7178 38.7397C40.1114 37.3462 41.1081 35.6062 41.6052 33.6992ZM48.1419 9.09833L40.3244 1.28083C38.6019 -0.441672 35.7973 -0.441672 34.0748 1.28083L27.0523 8.30333C25.3298 10.0258 25.3298 12.8304 27.0523 14.5529L29.7906 17.2912L28.2227 18.8592L25.5064 16.1208C23.7839 14.3983 20.9794 14.3983 19.2569 16.1208L16.121 19.2567C14.3985 20.9792 14.3985 23.7837 16.121 25.5062L18.8594 28.2446L17.2914 29.8125L14.5752 27.0521C12.8527 25.3296 10.0481 25.3296 8.3256 27.0521L1.30311 34.0746C-0.419394 35.7971 -0.419394 38.6017 1.30311 40.3242L9.12061 48.1417C10.8431 49.8642 13.6477 49.8642 15.3702 48.1417L22.3927 41.1192C24.1152 39.3967 24.1152 36.5921 22.3927 34.8696L19.6544 32.1312L21.2223 30.5633L23.9606 33.3017C25.6831 35.0242 28.4877 35.0242 30.2102 33.3017L33.3239 30.1879C35.0464 28.4654 35.0464 25.6608 33.3239 23.9383L30.5635 21.2L32.1314 19.6321L34.8698 22.3704C36.5923 24.0929 39.3969 24.0929 41.1194 22.3704L48.1419 15.3479C49.8644 13.6254 49.8644 10.8208 48.1419 9.09833ZM12.2344 45.0058L4.41686 37.2104L6.75769 34.8696L14.5752 42.6871L12.2344 45.0058ZM16.916 40.3242L9.09852 32.5067L11.4394 30.1658L19.2569 37.9833L16.916 40.3242ZM37.9835 19.2567L30.166 11.4392L32.5069 9.09833L40.3244 16.9158L37.9835 19.2567ZM42.6652 14.575L34.8477 6.75749L37.2106 4.41666L45.0281 12.2342L42.6652 14.575Z" fill="#2A2A2A"/>
</svg>
