<svg width="20" height="20" viewBox="0 0 20 20" fill="none" xmlns="http://www.w3.org/2000/svg">
<path d="M9.85694 3C9.85694 4.47276 11.0508 5.66667 12.5236 5.66667C13.9964 5.66667 15.1903 4.47276 15.1903 3C15.1903 1.52724 13.9964 0.333336 12.5236 0.333336C11.0508 0.333336 9.85694 1.52724 9.85694 3ZM6.4283 3L6.4283 2.5H6.4283V3ZM3 5.99998H2.5H3ZM8.33292 9.61504L8.33084 10.115L8.33292 9.61504ZM4.90342 14.9795C4.90342 16.4523 6.09733 17.6462 7.57009 17.6462C9.04285 17.6462 10.2368 16.4523 10.2368 14.9795C10.2368 13.5068 9.04285 12.3129 7.57009 12.3129C6.09733 12.3129 4.90342 13.5068 4.90342 14.9795ZM12.5236 2.5L6.4283 2.5L6.4283 3.5L12.5236 3.5V2.5ZM6.4283 2.5C5.76532 2.5 4.81062 2.72574 4.00888 3.25902C3.1892 3.80423 2.5 4.69602 2.5 5.99998L3.5 5.99998C3.5 5.10485 3.9538 4.49666 4.5627 4.09165C5.18954 3.67471 5.94899 3.5 6.4283 3.5V2.5ZM2.5 5.99998C2.5 8.19116 4.5693 10.0994 8.33084 10.115L8.33501 9.11505C4.85936 9.10055 3.5 7.40877 3.5 5.99998L2.5 5.99998ZM8.33084 10.115C9.39602 10.1195 10.6068 10.0433 11.7922 9.98423C12.989 9.92458 14.1663 9.88181 15.207 9.94543C16.2591 10.0097 17.1056 10.1801 17.6764 10.5024C17.954 10.6591 18.154 10.8449 18.2864 11.0621C18.4179 11.2776 18.4999 11.552 18.5 11.9142L19.5 11.914C19.4999 11.393 19.3794 10.9337 19.1402 10.5414C18.902 10.1508 18.5632 9.85462 18.168 9.63156C17.3934 9.19426 16.3589 9.01397 15.2681 8.94729C14.1659 8.87991 12.9384 8.92586 11.7424 8.98547C10.535 9.04566 9.36494 9.11934 8.33501 9.11505L8.33084 10.115ZM18.5 11.9142C18.5002 12.7163 18.3074 13.2036 17.9833 13.5325C17.6446 13.876 17.0884 14.1236 16.1992 14.2791C15.3145 14.4338 14.1717 14.486 12.7272 14.4974C11.2793 14.5088 9.58582 14.4795 7.57009 14.4795V15.4795C9.55441 15.4795 11.2898 15.5087 12.7351 15.4973C14.1838 15.4859 15.3986 15.4342 16.3714 15.2641C17.3398 15.0948 18.1411 14.7968 18.6955 14.2345C19.2643 13.6573 19.5002 12.8783 19.5 11.914L18.5 11.9142Z" fill="#757575"/>
</svg>
