<svg width="20" height="20" viewBox="0 0 20 20" fill="none" xmlns="http://www.w3.org/2000/svg">
<path fill-rule="evenodd" clip-rule="evenodd" d="M12.9993 1.66699C12.6457 1.66699 12.3066 1.80747 12.0565 2.05752C11.8065 2.30757 11.666 2.6467 11.666 3.00033V6.66699H7.99935C7.64573 6.66699 7.30659 6.80746 7.05654 7.05752C6.80649 7.30757 6.66601 7.64671 6.66601 8.00032V12.5003H2.99935C2.64573 12.5003 2.30659 12.6408 2.05654 12.8908C1.80649 13.1409 1.66602 13.48 1.66602 13.8337V17.0003C1.66602 17.3539 1.80649 17.6931 2.05654 17.9431C2.30659 18.1932 2.64573 18.3337 2.99935 18.3337H16.9993C17.353 18.3337 17.6921 18.1932 17.9422 17.9431C18.1922 17.6931 18.3327 17.3539 18.3327 17.0003V3.00033C18.3327 2.6467 18.1922 2.30757 17.9422 2.05752C17.6921 1.80747 17.353 1.66699 16.9993 1.66699H12.9993ZM8.33268 8.33366H11.666V16.667H8.33268V8.33366ZM16.666 16.667H13.3327V3.33366H16.666V16.667ZM6.66601 14.167V16.667H3.33268V14.167H6.66601Z" fill="black"/>
</svg>
