<svg width="20" height="20" viewBox="0 0 20 20" fill="none" xmlns="http://www.w3.org/2000/svg">
<path fill-rule="evenodd" clip-rule="evenodd" d="M6.66601 1.66634C6.66601 1.2061 6.29292 0.833008 5.83268 0.833008C5.37244 0.833008 4.99935 1.2061 4.99935 1.66634V2.49967H4.16602C3.50297 2.49967 2.86709 2.76307 2.39825 3.23191C1.92941 3.70075 1.66602 4.33663 1.66602 4.99967V15.833C1.66602 16.496 1.92941 17.1319 2.39825 17.6008C2.86709 18.0696 3.50297 18.333 4.16602 18.333H15.8327C16.4957 18.333 17.1316 18.0696 17.6004 17.6008C18.0693 17.1319 18.3327 16.496 18.3327 15.833V4.99967C18.3327 4.33663 18.0693 3.70075 17.6004 3.23191C17.1316 2.76307 16.4957 2.49967 15.8327 2.49967H15.416C14.9558 2.49967 14.5827 2.87277 14.5827 3.33301C14.5827 3.79325 14.9558 4.16634 15.416 4.16634H15.8327C16.0537 4.16634 16.2657 4.25414 16.4219 4.41042C16.5782 4.5667 16.666 4.77866 16.666 4.99967V7.49967H3.33268V4.99967C3.33268 4.77866 3.42048 4.5667 3.57676 4.41042C3.73304 4.25414 3.945 4.16634 4.16602 4.16634H4.99935V4.99967C4.99935 5.45991 5.37244 5.83301 5.83268 5.83301C6.29292 5.83301 6.66601 5.45991 6.66601 4.99967V1.66634ZM3.57676 16.4223C3.42048 16.266 3.33268 16.054 3.33268 15.833V9.16634H16.666V15.833C16.666 16.054 16.5782 16.266 16.4219 16.4223C16.2657 16.5785 16.0537 16.6663 15.8327 16.6663H4.16602C3.945 16.6663 3.73304 16.5785 3.57676 16.4223Z" fill="#757575"/>
<path d="M13.3327 1.66634C13.3327 1.2061 12.9596 0.833008 12.4993 0.833008C12.0391 0.833008 11.666 1.2061 11.666 1.66634V2.49967H8.74935C8.28911 2.49967 7.91601 2.87277 7.91601 3.33301C7.91601 3.79325 8.28911 4.16634 8.74935 4.16634H11.666V4.99967C11.666 5.45991 12.0391 5.83301 12.4993 5.83301C12.9596 5.83301 13.3327 5.45991 13.3327 4.99967V1.66634Z" fill="#757575"/>
</svg>
