<svg width="92" height="92" viewBox="0 0 92 92" fill="none" xmlns="http://www.w3.org/2000/svg">
<path d="M46 0.5C37.001 0.5 28.204 3.16853 20.7216 8.16813C13.2391 13.1677 7.40729 20.2739 3.9635 28.5879C0.519714 36.9019 -0.381337 46.0505 1.37429 54.8766C3.12992 63.7027 7.46337 71.8101 13.8267 78.1734C20.19 84.5367 28.2973 88.8701 37.1234 90.6257C45.9496 92.3814 55.0981 91.4803 63.4121 88.0365C71.7262 84.5927 78.8323 78.7609 83.8319 71.2785C88.8315 63.796 91.5 54.9991 91.5 46C91.5 33.9327 86.7063 22.3595 78.1734 13.8266C69.6405 5.29374 58.0674 0.5 46 0.5ZM70.2028 48.9088L31.2028 68.4088C30.7072 68.6564 30.1565 68.7733 29.603 68.7482C29.0495 68.7231 28.5116 68.557 28.0404 68.2655C27.5692 67.9741 27.1804 67.567 26.9108 67.083C26.6412 66.599 26.4998 66.0541 26.5 65.5V26.5C26.5003 25.9462 26.6421 25.4017 26.9119 24.9181C27.1818 24.4345 27.5707 24.0279 28.0418 23.7369C28.5129 23.4458 29.0506 23.2799 29.6038 23.255C30.157 23.2301 30.7074 23.347 31.2028 23.5945L70.2028 43.0945C70.7419 43.3647 71.1952 43.7796 71.512 44.2927C71.8288 44.8058 71.9966 45.397 71.9966 46C71.9966 46.603 71.8288 47.1942 71.512 47.7073C71.1952 48.2204 70.7419 48.6353 70.2028 48.9055V48.9088Z" fill="white"/>
</svg>
