<svg width="34" height="33" viewBox="0 0 34 33" fill="none" xmlns="http://www.w3.org/2000/svg">
<g clip-path="url(#clip0_3_2847)">
<path d="M24.2066 14.4137C23.1857 14.3933 22.3779 14.7799 21.6429 15.4919C21.3698 15.7573 20.7279 15.6412 20.2162 15.7037C20.1703 15.4958 20.1384 15.3209 20.0886 15.1372C19.9482 14.6268 19.5858 14.4163 19.0817 14.4596C18.5777 14.503 18.2931 14.785 18.2587 15.2763C18.2293 15.6986 18.1527 16.1606 18.2829 16.5408C18.4501 17.0308 18.2395 17.2605 17.9549 17.5705C17.4547 18.1116 16.7771 18.6347 16.5895 19.2868C16.3011 20.2897 16.0484 21.248 15.3989 22.1029C15.1615 22.4168 15.173 22.9553 15.159 23.3943C15.1284 24.4342 15.1488 25.4767 15.1488 26.5613H5.94292C5.93272 26.352 5.91357 26.1287 5.91357 25.9054C5.91357 17.739 5.91357 9.57252 5.91357 1.40606C5.91357 0.385254 6.21984 0.0726318 7.23945 0.0726318H22.9943C23.9003 0.0726318 24.2474 0.400566 24.2487 1.28867C24.2538 5.4995 24.2538 9.71033 24.2487 13.9212C24.2525 14.0615 24.227 14.2057 24.2066 14.4137ZM11.9138 5.68069C11.9138 5.48929 11.9215 5.29789 11.9138 5.10776C11.8883 4.5527 11.5667 4.2337 11.041 4.19414C10.5152 4.15459 10.1209 4.44934 10.052 4.97889C9.99371 5.44064 9.99929 5.90823 10.0686 6.36846C10.1464 6.87887 10.5254 7.12258 11.0359 7.09196C11.5463 7.06133 11.85 6.76785 11.9075 6.25234C11.9198 6.06204 11.9219 5.87122 11.9138 5.68069ZM11.9138 10.7911H11.9215C11.9215 10.601 11.9304 10.4083 11.9215 10.2195C11.8909 9.66312 11.5616 9.35432 11.0282 9.32625C10.4948 9.29818 10.1094 9.58145 10.052 10.1238C9.99975 10.6058 10.0148 11.0928 10.0967 11.5708C10.1834 12.0531 10.5765 12.247 11.0537 12.2151C11.531 12.1832 11.836 11.9025 11.9049 11.4227C11.9214 11.2104 11.9231 10.9973 11.91 10.7847L11.9138 10.7911ZM16.0318 5.64752C16.0318 5.47781 16.0433 5.30682 16.0318 5.13711C15.9859 4.56929 15.6311 4.20052 15.1233 4.18138C14.6154 4.16224 14.1904 4.54122 14.1419 5.13584C14.1136 5.47551 14.1136 5.81697 14.1419 6.15664C14.193 6.77423 14.563 7.1162 15.1194 7.10089C15.6758 7.08558 15.9961 6.73212 16.0357 6.09667C16.0357 5.93589 16.028 5.78915 16.028 5.64114L16.0318 5.64752ZM18.2535 5.61179C18.2535 5.80319 18.2433 5.99459 18.2535 6.18344C18.2893 6.72702 18.5802 7.04602 19.1264 7.09323C19.6726 7.14045 20.0643 6.81379 20.123 6.24979C20.1645 5.82866 20.1607 5.4043 20.1116 4.98399C20.0516 4.47359 19.6943 4.19031 19.194 4.19287C18.6657 4.19287 18.3212 4.4889 18.2612 5.04014C18.2474 5.22822 18.2436 5.41691 18.2497 5.60541L18.2535 5.61179ZM16.0165 15.9475H16.0267C16.0267 15.7573 16.0408 15.5647 16.0267 15.3758C15.9757 14.7927 15.6439 14.4635 15.099 14.4584C14.5541 14.4533 14.1955 14.7748 14.147 15.3516C14.1115 15.7518 14.1175 16.1546 14.1649 16.5536C14.2338 17.0997 14.5988 17.3626 15.1398 17.3396C15.6503 17.3192 15.9591 17.0333 16.0165 16.5153C16.0257 16.3231 16.0244 16.1306 16.0127 15.9385L16.0165 15.9475ZM11.9189 15.8875C11.9189 15.6974 11.933 15.5047 11.9189 15.3171C11.8743 14.7965 11.5769 14.5017 11.0652 14.466C10.5254 14.4277 10.1719 14.6919 10.0597 15.2316C10.0251 15.4424 10.0127 15.6562 10.0226 15.8696C10.0226 16.9172 10.2957 17.3523 10.9695 17.3613C11.6433 17.3702 11.9253 16.9376 11.9151 15.8786L11.9189 15.8875ZM16.0395 10.7847H16.0191C16.0191 10.5933 16.0293 10.4019 16.0191 10.2131C15.9846 9.65929 15.6592 9.36581 15.1258 9.31221C14.6154 9.26117 14.193 9.62739 14.1419 10.1799C14.1036 10.6009 14.11 11.0248 14.1611 11.4444C14.2274 11.9548 14.5758 12.21 15.0913 12.21C15.6069 12.21 15.9234 11.9344 16.0012 11.4189C16.0357 11.2096 16.0293 10.9965 16.0395 10.7847ZM20.1639 10.772H20.1307C20.1422 10.582 20.1422 10.3915 20.1307 10.2016C20.0592 9.6427 19.67 9.29435 19.1583 9.30839C18.6466 9.32242 18.2791 9.69119 18.2497 10.2577C18.2223 10.6587 18.23 11.0614 18.2727 11.461C18.3327 11.9497 18.6657 12.1934 19.1494 12.2088C19.633 12.2241 19.9699 12.0059 20.0848 11.5261C20.1279 11.2768 20.1543 11.0248 20.1639 10.772Z" fill="white"/>
<path d="M21.1095 17.4519C21.4144 17.6496 21.7347 17.8347 22.0346 18.058C22.5885 18.4625 22.8679 18.3553 22.9738 17.6752C23.1742 16.3992 23.2482 16.329 24.5524 16.329C25.1471 16.329 25.7417 16.329 26.3389 16.329C27.1774 16.3392 27.3879 16.5204 27.5232 17.3319C27.5513 17.4991 27.5653 17.6688 27.5972 17.8359C27.6814 18.2685 28.0017 18.3987 28.3731 18.1447C28.5658 18.0171 28.7368 17.8513 28.9294 17.7186C29.3263 17.4468 29.7321 17.4276 30.0907 17.7734C30.7475 18.4072 31.394 19.0524 32.0304 19.7091C32.3724 20.0626 32.3813 20.4658 32.0916 20.8665C31.9551 21.0553 31.7994 21.2314 31.6693 21.4254C31.414 21.8082 31.5327 22.1055 31.9755 22.2165C33.4724 22.5878 33.4724 22.5878 33.4724 24.1088C33.4724 24.6409 33.4635 25.1717 33.4724 25.7038C33.4864 26.3354 33.2172 26.7144 32.5676 26.7795C32.3775 26.7974 32.1848 26.8318 32.001 26.8637C31.5519 26.9415 31.4102 27.2465 31.6437 27.6293C32.4541 28.9564 32.4541 28.9564 31.3375 30.0729C30.9763 30.434 30.6203 30.7989 30.254 31.1549C29.7168 31.6755 29.3978 31.696 28.8044 31.2608C28.6606 31.1391 28.5102 31.0254 28.3539 30.9201C27.9864 30.7083 27.7044 30.7657 27.6023 31.2238C27.2616 32.7487 27.2628 32.7487 25.7277 32.7487C25.1968 32.7487 24.666 32.7487 24.1338 32.7487C23.3682 32.7397 23.0989 32.4935 23.0096 31.7496C23.0001 31.5587 22.9737 31.3691 22.9305 31.183C22.8092 30.8002 22.5591 30.6726 22.2044 30.9125C22.0091 31.0401 21.833 31.1958 21.6467 31.3361C21.2064 31.6692 20.784 31.6487 20.3897 31.2583C19.7861 30.6598 19.1876 30.0563 18.5853 29.4566C18.1718 29.0457 18.1489 28.608 18.496 28.1474C18.6364 27.9598 18.7984 27.7875 18.9197 27.5898C19.1404 27.2325 19.009 26.9926 18.6261 26.879C18.4996 26.8554 18.3718 26.8396 18.2433 26.8318C17.2224 26.6787 17.0629 26.4988 17.0591 25.478C17.0591 24.8195 17.0591 24.1598 17.0591 23.5014C17.0667 22.6082 17.285 22.3683 18.1578 22.2739C18.3279 22.2715 18.4968 22.2449 18.6593 22.1948C19.009 22.0481 19.1468 21.8043 18.8916 21.4573C18.741 21.2505 18.5725 21.0591 18.4283 20.8486C18.1731 20.4658 18.1731 20.0702 18.4832 19.7385C19.1277 19.0609 19.7925 18.4025 20.4688 17.7568C20.6118 17.6216 20.8389 17.5769 21.1095 17.4519ZM28.7661 24.5414C28.7521 22.5393 27.2348 21.0272 25.2453 21.0413C24.7818 21.0385 24.3224 21.1282 23.8941 21.3052C23.4657 21.4821 23.0769 21.7427 22.7505 22.0717C22.424 22.4008 22.1665 22.7916 21.993 23.2213C21.8194 23.6511 21.7334 24.1111 21.7398 24.5746C21.7398 26.4975 23.3567 28.0657 25.313 28.0478C25.7705 28.0455 26.223 27.9529 26.6446 27.7752C27.0662 27.5976 27.4486 27.3384 27.7698 27.0126C28.091 26.6868 28.3447 26.3008 28.5163 25.8767C28.688 25.4526 28.7741 24.9988 28.7699 24.5414H28.7661Z" fill="white"/>
<path d="M3.97263 11.3424V26.5958C3.19038 26.5958 2.42982 26.6316 1.67564 26.5831C1.07714 26.5461 0.796399 26.1237 0.795122 25.4002C0.795122 21.7253 0.795122 18.05 0.795122 14.3742C0.790018 13.7196 0.790018 13.0574 0.797675 12.3989C0.811712 11.7609 1.13967 11.3781 1.75731 11.3513C2.47321 11.3156 3.19293 11.3424 3.97263 11.3424Z" fill="white"/>
<path d="M26.219 5.08228C26.5776 5.2724 26.9081 5.3681 27.1289 5.57864C28.1157 6.52034 29.077 7.48372 30.0129 8.4688C30.2281 8.69781 30.3583 8.99373 30.3817 9.30714C30.4123 11.3704 30.397 13.4338 30.3931 15.4971C30.3886 15.5412 30.3769 15.5843 30.3587 15.6247C29.9567 15.6247 29.5764 15.6323 29.1987 15.6247C29.0769 15.6326 28.9565 15.5954 28.8605 15.52C28.1919 14.6893 27.3011 14.3716 26.2177 14.4239L26.219 5.08228Z" fill="white"/>
<path d="M26.8571 24.5554C26.8469 25.4932 26.1654 26.1466 25.2211 26.1261C25.0131 26.1253 24.8073 26.0832 24.6157 26.0022C24.4241 25.9212 24.2504 25.803 24.1049 25.6544C23.9593 25.5058 23.8448 25.3297 23.7678 25.1364C23.6908 24.9432 23.6531 24.7366 23.6566 24.5286C23.667 24.0976 23.8471 23.6882 24.1577 23.3893C24.4684 23.0903 24.8845 22.9261 25.3155 22.9323C25.7335 22.9482 26.1286 23.1269 26.4166 23.4302C26.7047 23.7334 26.8627 24.1372 26.8571 24.5554Z" fill="white"/>
</g>
<defs>
<clipPath id="clip0_3_2847">
<rect width="32.685" height="32.685" fill="white" transform="translate(0.789978 0.0662842)"/>
</clipPath>
</defs>
</svg>
