<svg width="14" height="14" viewBox="0 0 14 14"  xmlns="http://www.w3.org/2000/svg">
<path d="M13.4954 7.22068L7.49536 0.554018C7.2427 0.272684 6.75736 0.272684 6.5047 0.554018L0.504697 7.22068C0.418334 7.31641 0.361646 7.43517 0.341526 7.56252C0.321406 7.68987 0.33872 7.82033 0.391363 7.93802C0.49803 8.17868 0.736697 8.33335 1.00003 8.33335H2.33336V13C2.33336 13.1768 2.4036 13.3464 2.52863 13.4714C2.65365 13.5964 2.82322 13.6667 3.00003 13.6667H5.00003C5.17684 13.6667 5.34641 13.5964 5.47143 13.4714C5.59646 13.3464 5.6667 13.1768 5.6667 13V10.3334H8.33336V13C8.33336 13.1768 8.4036 13.3464 8.52863 13.4714C8.65365 13.5964 8.82322 13.6667 9.00003 13.6667H11C11.1768 13.6667 11.3464 13.5964 11.4714 13.4714C11.5965 13.3464 11.6667 13.1768 11.6667 13V8.33335H13C13.1291 8.3339 13.2556 8.29687 13.3641 8.22678C13.4725 8.15669 13.5582 8.05656 13.6107 7.93861C13.6632 7.82066 13.6803 7.68998 13.6598 7.5625C13.6393 7.43502 13.5822 7.31626 13.4954 7.22068Z"  />
</svg>
