<svg width="12" height="12" viewBox="0 0 12 12"  xmlns="http://www.w3.org/2000/svg">
<path d="M7.16666 4.83335V3.94669C7.16666 3.53252 6.75249 3.25252 6.36749 3.40419L4.24999 4.25002V3.97002C4.24999 3.55002 3.82416 3.26419 3.43916 3.43335L0.87249 4.53002C0.446657 4.71669 0.166656 5.13669 0.166656 5.60335V10.6667C0.166656 11.3084 0.691657 11.8334 1.33332 11.8334H10.6667C11.3083 11.8334 11.8333 11.3084 11.8333 10.6667V4.83335H7.16666ZM4.24999 8.91669C4.24999 9.23752 3.98749 9.50002 3.66666 9.50002C3.34582 9.50002 3.08332 9.23752 3.08332 8.91669V7.75002C3.08332 7.42919 3.34582 7.16669 3.66666 7.16669C3.98749 7.16669 4.24999 7.42919 4.24999 7.75002V8.91669ZM6.58332 8.91669C6.58332 9.23752 6.32082 9.50002 5.99999 9.50002C5.67916 9.50002 5.41666 9.23752 5.41666 8.91669V7.75002C5.41666 7.42919 5.67916 7.16669 5.99999 7.16669C6.32082 7.16669 6.58332 7.42919 6.58332 7.75002V8.91669ZM8.91666 8.91669C8.91666 9.23752 8.65416 9.50002 8.33332 9.50002C8.01249 9.50002 7.74999 9.23752 7.74999 8.91669V7.75002C7.74999 7.42919 8.01249 7.16669 8.33332 7.16669C8.65416 7.16669 8.91666 7.42919 8.91666 7.75002V8.91669ZM10.7367 0.166687H10.0192C9.72166 0.166687 9.47666 0.388354 9.44166 0.68002L9.03332 3.95835H11.7167L11.3142 0.68002C11.2792 0.388354 11.0283 0.166687 10.7367 0.166687Z" />
</svg>
